<?xml version="1.0" encoding="utf-8"?>
<!-- created with bpmn-js / http://bpmn.io -->
<!DOCTYPE svg PUBLIC "-//W3C//DTD SVG 1.1//EN" "http://www.w3.org/Graphics/SVG/1.1/DTD/svg11.dtd">
<svg xmlns="http://www.w3.org/2000/svg" xmlns:xlink="http://www.w3.org/1999/xlink" width="1412" height="402" viewBox="117 44 1412 402" version="1.1"><defs><marker id="association-end-white-black-3d85df6fi4lkgn1iriqwgsru3" viewBox="0 0 20 20" refX="12" refY="10" markerWidth="10" markerHeight="10" orient="auto"><path d="M 1 5 L 11 10 L 1 15" style="fill: none; stroke-width: 1.5px; stroke-linecap: round; stroke-dasharray: 10000px, 1px; stroke: black;"/></marker><marker id="sequenceflow-end-white-black-3d85df6fi4lkgn1iriqwgsru3" viewBox="0 0 20 20" refX="11" refY="10" markerWidth="10" markerHeight="10" orient="auto"><path d="M 1 5 L 11 10 L 1 15 Z" style="fill: black; stroke-width: 1px; stroke-linecap: round; stroke-dasharray: 10000px, 1px; stroke: black;"/></marker></defs><g class="djs-group"><g class="djs-element djs-shape" data-element-id="Participant_0otck3h" transform="matrix(1, 0, 0, 1, 123, 50)" style="display: block;"><g class="djs-visual"><rect x="0" y="0" width="1400" height="390" rx="0" ry="0" style="stroke: black; stroke-width: 2px; fill: white; fill-opacity: 0.95;"/><polyline points="30,0 30,390 " style="fill: none; stroke: black; stroke-width: 2px;"/><text style="font-family: Arial, sans-serif; font-size: 12px; font-weight: normal; fill: black;" lineHeight="1.2" class="djs-label" transform="matrix(-1.83697e-16, -1, 1, -1.83697e-16, 0, 390)"><tspan x="178.3333339691162" y="18.6">Airline</tspan></text></g><rect style="fill: none; stroke-opacity: 0; stroke: white; stroke-width: 15px;" class="djs-hit djs-hit-click-stroke" x="0" y="0" width="1400" height="390"/><rect style="fill: none; stroke-opacity: 0; stroke: white; stroke-width: 15px;" class="djs-hit djs-hit-all" x="0" y="0" width="30" height="390"/><rect x="-6" y="-6" width="1412" height="402" style="fill: none;" class="djs-outline"/></g><g class="djs-children"><g class="djs-group"><g class="djs-element djs-connection" data-element-id="SequenceFlow_19vbkdg" style="display: block;"><g class="djs-visual"><path d="m  209,120L259,120 " style="fill: none; stroke-width: 2px; stroke: black; stroke-linejoin: round; marker-end: url('#sequenceflow-end-white-black-3d85df6fi4lkgn1iriqwgsru3');"/></g><polyline points="209,120 259,120 " style="fill: none; stroke-opacity: 0; stroke: white; stroke-width: 15px;" class="djs-hit djs-hit-stroke"/><rect x="203" y="114" width="62" height="12" style="fill: none;" class="djs-outline"/></g></g><g class="djs-group"><g class="djs-element djs-connection" data-element-id="SequenceFlow_048iap1" style="display: block;"><g class="djs-visual"><path d="m  295,120L353,120 " style="fill: none; stroke-width: 2px; stroke: black; stroke-linejoin: round; marker-end: url('#sequenceflow-end-white-black-3d85df6fi4lkgn1iriqwgsru3');"/></g><polyline points="295,120 353,120 " style="fill: none; stroke-opacity: 0; stroke: white; stroke-width: 15px;" class="djs-hit djs-hit-stroke"/><rect x="289" y="114" width="70" height="12" style="fill: none;" class="djs-outline"/></g></g><g class="djs-group"><g class="djs-element djs-connection" data-element-id="SequenceFlow_09aehod" style="display: block;"><g class="djs-visual"><path d="m  618,145L618,211 L634,211 " style="fill: none; stroke-width: 2px; stroke: black; stroke-linejoin: round; marker-end: url('#sequenceflow-end-white-black-3d85df6fi4lkgn1iriqwgsru3');"/></g><polyline points="618,145 618,211 634,211 " style="fill: none; stroke-opacity: 0; stroke: white; stroke-width: 15px;" class="djs-hit djs-hit-stroke"/><rect x="612" y="139" width="28" height="78" style="fill: none;" class="djs-outline"/></g></g><g class="djs-group"><g class="djs-element djs-connection" data-element-id="SequenceFlow_0ox59cr" style="display: block;"><g class="djs-visual"><path d="m  643,120L736,120 " style="fill: none; stroke-width: 2px; stroke: black; stroke-linejoin: round; marker-end: url('#sequenceflow-end-white-black-3d85df6fi4lkgn1iriqwgsru3');"/></g><polyline points="643,120 736,120 " style="fill: none; stroke-opacity: 0; stroke: white; stroke-width: 15px;" class="djs-hit djs-hit-stroke"/><rect x="637" y="114" width="105" height="12" style="fill: none;" class="djs-outline"/></g></g><g class="djs-group"><g class="djs-element djs-connection" data-element-id="SequenceFlow_1f1fex5" style="display: block;"><g class="djs-visual"><path d="m  734,211L761,211 L761,145 " style="fill: none; stroke-width: 2px; stroke: black; stroke-linejoin: round; marker-end: url('#sequenceflow-end-white-black-3d85df6fi4lkgn1iriqwgsru3');"/></g><polyline points="734,211 761,211 761,145 " style="fill: none; stroke-opacity: 0; stroke: white; stroke-width: 15px;" class="djs-hit djs-hit-stroke"/><rect x="728" y="139" width="39" height="78" style="fill: none;" class="djs-outline"/></g></g><g class="djs-group"><g class="djs-element djs-connection" data-element-id="SequenceFlow_1h6qj3t" style="display: block;"><g class="djs-visual"><path d="m  786,120L820,120 " style="fill: none; stroke-width: 2px; stroke: black; stroke-linejoin: round; marker-end: url('#sequenceflow-end-white-black-3d85df6fi4lkgn1iriqwgsru3');"/></g><polyline points="786,120 820,120 " style="fill: none; stroke-opacity: 0; stroke: white; stroke-width: 15px;" class="djs-hit djs-hit-stroke"/><rect x="780" y="114" width="46" height="12" style="fill: none;" class="djs-outline"/></g></g><g class="djs-group"><g class="djs-element djs-connection" data-element-id="SequenceFlow_1v5wv5k" style="display: block;"><g class="djs-visual"><path d="m  856,120L886,120 " style="fill: none; stroke-width: 2px; stroke: black; stroke-linejoin: round; marker-end: url('#sequenceflow-end-white-black-3d85df6fi4lkgn1iriqwgsru3');"/></g><polyline points="856,120 886,120 " style="fill: none; stroke-opacity: 0; stroke: white; stroke-width: 15px;" class="djs-hit djs-hit-stroke"/><rect x="850" y="114" width="42" height="12" style="fill: none;" class="djs-outline"/></g></g><g class="djs-group"><g class="djs-element djs-connection" data-element-id="SequenceFlow_0m0pmnh" style="display: block;"><g class="djs-visual"><path d="m  986,120L1025,120 " style="fill: none; stroke-width: 2px; stroke: black; stroke-linejoin: round; marker-end: url('#sequenceflow-end-white-black-3d85df6fi4lkgn1iriqwgsru3');"/></g><polyline points="986,120 1025,120 " style="fill: none; stroke-opacity: 0; stroke: white; stroke-width: 15px;" class="djs-hit djs-hit-stroke"/><rect x="980" y="114" width="51" height="12" style="fill: none;" class="djs-outline"/></g></g><g class="djs-group"><g class="djs-element djs-connection" data-element-id="SequenceFlow_01xdpcd" style="display: block;"><g class="djs-visual"><path d="m  1061,120L1109,120 " style="fill: none; stroke-width: 2px; stroke: black; stroke-linejoin: round; marker-end: url('#sequenceflow-end-white-black-3d85df6fi4lkgn1iriqwgsru3');"/></g><polyline points="1061,120 1109,120 " style="fill: none; stroke-opacity: 0; stroke: white; stroke-width: 15px;" class="djs-hit djs-hit-stroke"/><rect x="1055" y="114" width="60" height="12" style="fill: none;" class="djs-outline"/></g></g><g class="djs-group"><g class="djs-element djs-connection" data-element-id="SequenceFlow_19j46d1" style="display: block;"><g class="djs-visual"><path d="m  1134,145L1134,230 L1204,230 " style="fill: none; stroke-width: 2px; stroke: black; stroke-linejoin: round; marker-end: url('#sequenceflow-end-white-black-3d85df6fi4lkgn1iriqwgsru3');"/></g><polyline points="1134,145 1134,230 1204,230 " style="fill: none; stroke-opacity: 0; stroke: white; stroke-width: 15px;" class="djs-hit djs-hit-stroke"/><rect x="1128" y="139" width="82" height="97" style="fill: none;" class="djs-outline"/></g></g><g class="djs-group"><g class="djs-element djs-connection" data-element-id="SequenceFlow_07c9pxl" style="display: block;"><g class="djs-visual"><path d="m  1304,230L1366,230 L1366,145 " style="fill: none; stroke-width: 2px; stroke: black; stroke-linejoin: round; marker-end: url('#sequenceflow-end-white-black-3d85df6fi4lkgn1iriqwgsru3');"/></g><polyline points="1304,230 1366,230 1366,145 " style="fill: none; stroke-opacity: 0; stroke: white; stroke-width: 15px;" class="djs-hit djs-hit-stroke"/><rect x="1298" y="139" width="74" height="97" style="fill: none;" class="djs-outline"/></g></g><g class="djs-group"><g class="djs-element djs-connection" data-element-id="SequenceFlow_04hj264" style="display: block;"><g class="djs-visual"><path d="m  1391,120L1466,120 " style="fill: none; stroke-width: 2px; stroke: black; stroke-linejoin: round; marker-end: url('#sequenceflow-end-white-black-3d85df6fi4lkgn1iriqwgsru3');"/></g><polyline points="1391,120 1466,120 " style="fill: none; stroke-opacity: 0; stroke: white; stroke-width: 15px;" class="djs-hit djs-hit-stroke"/><rect x="1385" y="114" width="87" height="12" style="fill: none;" class="djs-outline"/></g></g><g class="djs-group"><g class="djs-element djs-connection" data-element-id="SequenceFlow_1sfiys8" style="display: block;"><g class="djs-visual"><path d="m  1159,120L1341,120 " style="fill: none; stroke-width: 2px; stroke: black; stroke-linejoin: round; marker-end: url('#sequenceflow-end-white-black-3d85df6fi4lkgn1iriqwgsru3');"/></g><polyline points="1159,120 1341,120 " style="fill: none; stroke-opacity: 0; stroke: white; stroke-width: 15px;" class="djs-hit djs-hit-stroke"/><rect x="1153" y="114" width="194" height="12" style="fill: none;" class="djs-outline"/></g></g><g class="djs-group"><g class="djs-element djs-connection" data-element-id="SequenceFlow_0if1ss7" style="display: block;"><g class="djs-visual"><path d="m  453,120L476,120 " style="fill: none; stroke-width: 2px; stroke: black; stroke-linejoin: round; marker-end: url('#sequenceflow-end-white-black-3d85df6fi4lkgn1iriqwgsru3');"/></g><polyline points="453,120 476,120 " style="fill: none; stroke-opacity: 0; stroke: white; stroke-width: 15px;" class="djs-hit djs-hit-stroke"/><rect x="447" y="114" width="35" height="12" style="fill: none;" class="djs-outline"/></g></g><g class="djs-group"><g class="djs-element djs-connection" data-element-id="SequenceFlow_08g3m2k" style="display: block;"><g class="djs-visual"><path d="m  576,120L593,120 " style="fill: none; stroke-width: 2px; stroke: black; stroke-linejoin: round; marker-end: url('#sequenceflow-end-white-black-3d85df6fi4lkgn1iriqwgsru3');"/></g><polyline points="576,120 593,120 " style="fill: none; stroke-opacity: 0; stroke: white; stroke-width: 15px;" class="djs-hit djs-hit-stroke"/><rect x="570" y="114" width="29" height="12" style="fill: none;" class="djs-outline"/></g></g><g class="djs-group"><g class="djs-element djs-shape" data-element-id="StartEvent_1" transform="matrix(1, 0, 0, 1, 173, 102)" style="display: block;"><g class="djs-visual"><circle cx="18" cy="18" r="18" style="stroke: black; stroke-width: 2px; fill: white; fill-opacity: 0.95;"/></g><rect style="fill: none; stroke-opacity: 0; stroke: white; stroke-width: 15px;" class="djs-hit djs-hit-all" x="0" y="0" width="36" height="36"/><rect x="-6" y="-6" width="48" height="48" style="fill: none;" class="djs-outline"/></g></g><g class="djs-group"><g class="djs-element djs-shape" data-element-id="IntermediateThrowEvent_0blvvca" transform="matrix(1, 0, 0, 1, 259, 102)" style="display: block;"><g class="djs-visual"><circle cx="18" cy="18" r="18" style="stroke: black; stroke-width: 1px; fill: white; fill-opacity: 0.95;"/><circle cx="18" cy="18" r="15" style="stroke: black; stroke-width: 1px; fill: none;"/></g><rect style="fill: none; stroke-opacity: 0; stroke: white; stroke-width: 15px;" class="djs-hit djs-hit-all" x="0" y="0" width="36" height="36"/><rect x="-6" y="-6" width="48" height="48" style="fill: none;" class="djs-outline"/></g></g><g class="djs-group"><g class="djs-element djs-shape" data-element-id="IntermediateThrowEvent_0blvvca_label" transform="matrix(1, 0, 0, 1, 236, 145)" style="display: block;"><g class="djs-visual"><text style="font-family: Arial, sans-serif; font-size: 11px; font-weight: normal; fill: black;" lineHeight="1.2" class="djs-label"><tspan x="0" y="9.899999999999999">Receive Booking</tspan><tspan x="41.275001525878906" y="23.099999999999998"/></text></g><rect style="fill: none; stroke-opacity: 0; stroke: white; stroke-width: 15px;" class="djs-hit djs-hit-all" x="0" y="0" width="83" height="27"/><rect x="-6" y="-6" width="95" height="39" style="fill: none;" class="djs-outline"/></g></g><g class="djs-group"><g class="djs-element djs-shape" data-element-id="Task_1wkg4by" transform="matrix(1, 0, 0, 1, 353, 80)" style="display: block;"><g class="djs-visual"><rect x="0" y="0" width="100" height="80" rx="10" ry="10" style="stroke: black; stroke-width: 2px; fill: white; fill-opacity: 0.95;"/><text style="font-family: Arial, sans-serif; font-size: 12px; font-weight: normal; fill: black;" lineHeight="1.2" class="djs-label"><tspan x="27.66666603088379" y="29.200000000000003">Register </tspan><tspan x="28.33333396911621" y="43.6">Booking</tspan><tspan x="50" y="58"/></text></g><rect style="fill: none; stroke-opacity: 0; stroke: white; stroke-width: 15px;" class="djs-hit djs-hit-all" x="0" y="0" width="100" height="80"/><rect x="-6" y="-6" width="112" height="92" style="fill: none;" class="djs-outline"/></g></g><g class="djs-group"><g class="djs-element djs-shape" data-element-id="DataStoreReference_0l7i8ue" transform="matrix(1, 0, 0, 1, 378, 289)" style="display: block;"><g class="djs-visual"><path d="m  0,6.65 l  0,36.885245901639344 c  1.639344262295082,8.196721311475411 47.540983606557376,8.196721311475411  49.18032786885246,0 l  0,-36.885245901639344 c -1.639344262295082,-8.196721311475411 -47.540983606557376,-8.196721311475411 -49.18032786885246,0c  1.639344262295082,8.196721311475411 47.540983606557376,8.196721311475411  49.18032786885246,0 m  -49.18032786885246,5.737704918032787c  1.639344262295082,8.196721311475411 47.540983606557376,8.196721311475411 49.18032786885246,0m  -49.18032786885246,5.737704918032787c  1.639344262295082,8.196721311475411 47.540983606557376,8.196721311475411  49.18032786885246,0" style="fill: white; stroke-width: 2px; stroke: black; fill-opacity: 0.95;"/></g><rect style="fill: none; stroke-opacity: 0; stroke: white; stroke-width: 15px;" class="djs-hit djs-hit-all" x="0" y="0" width="50" height="50"/><rect x="-6" y="-6" width="62" height="62" style="fill: none;" class="djs-outline"/></g></g><g class="djs-group"><g class="djs-element djs-shape" data-element-id="DataStoreReference_0l7i8ue_label" transform="matrix(1, 0, 0, 1, 380, 346)" style="display: block;"><g class="djs-visual"><text style="font-family: Arial, sans-serif; font-size: 11px; font-weight: normal; fill: black;" lineHeight="1.2" class="djs-label"><tspan x="0" y="9.899999999999999">Bookings</tspan></text></g><rect style="fill: none; stroke-opacity: 0; stroke: white; stroke-width: 15px;" class="djs-hit djs-hit-all" x="0" y="0" width="46" height="14"/><rect x="-6" y="-6" width="58" height="26" style="fill: none;" class="djs-outline"/></g></g><g class="djs-group"><g class="djs-element djs-shape" data-element-id="ExclusiveGateway_01lntac" transform="matrix(1, 0, 0, 1, 593, 95)" style="display: block;"><g class="djs-visual"><polygon points="25,0 50,25 25,50 0,25" style="stroke: black; stroke-width: 2px; fill: white; fill-opacity: 0.95;"/><path d="m 16,15 7.42857142857143,9.714285714285715 -7.42857142857143,9.714285714285715 3.428571428571429,0 5.714285714285715,-7.464228571428572 5.714285714285715,7.464228571428572 3.428571428571429,0 -7.42857142857143,-9.714285714285715 7.42857142857143,-9.714285714285715 -3.428571428571429,0 -5.714285714285715,7.464228571428572 -5.714285714285715,-7.464228571428572 -3.428571428571429,0 z" style="fill: black; stroke-width: 1px; stroke: black;"/></g><rect style="fill: none; stroke-opacity: 0; stroke: white; stroke-width: 15px;" class="djs-hit djs-hit-all" x="0" y="0" width="50" height="50"/><rect x="-6" y="-6" width="62" height="62" style="fill: none;" class="djs-outline"/></g></g><g class="djs-group"><g class="djs-element djs-shape" data-element-id="Task_0pqynl0" transform="matrix(1, 0, 0, 1, 634, 171)" style="display: block;"><g class="djs-visual"><rect x="0" y="0" width="100" height="80" rx="10" ry="10" style="stroke: black; stroke-width: 2px; fill: white; fill-opacity: 0.95;"/><text style="font-family: Arial, sans-serif; font-size: 12px; font-weight: normal; fill: black;" lineHeight="1.2" class="djs-label"><tspan x="27.66666603088379" y="22">Request </tspan><tspan x="8" y="36.4">assistance from </tspan><tspan x="18.441665649414062" y="50.8">Airport Staff</tspan><tspan x="50" y="65.19999999999999"/></text></g><rect style="fill: none; stroke-opacity: 0; stroke: white; stroke-width: 15px;" class="djs-hit djs-hit-all" x="0" y="0" width="100" height="80"/><rect x="-6" y="-6" width="112" height="92" style="fill: none;" class="djs-outline"/></g></g><g class="djs-group"><g class="djs-element djs-shape" data-element-id="ExclusiveGateway_12ta87a" transform="matrix(1, 0, 0, 1, 736, 95)" style="display: block;"><g class="djs-visual"><polygon points="25,0 50,25 25,50 0,25" style="stroke: black; stroke-width: 2px; fill: white; fill-opacity: 0.95;"/><path d="m 16,15 7.42857142857143,9.714285714285715 -7.42857142857143,9.714285714285715 3.428571428571429,0 5.714285714285715,-7.464228571428572 5.714285714285715,7.464228571428572 3.428571428571429,0 -7.42857142857143,-9.714285714285715 7.42857142857143,-9.714285714285715 -3.428571428571429,0 -5.714285714285715,7.464228571428572 -5.714285714285715,-7.464228571428572 -3.428571428571429,0 z" style="fill: black; stroke-width: 1px; stroke: black;"/></g><rect style="fill: none; stroke-opacity: 0; stroke: white; stroke-width: 15px;" class="djs-hit djs-hit-all" x="0" y="0" width="50" height="50"/><rect x="-6" y="-6" width="62" height="62" style="fill: none;" class="djs-outline"/></g></g><g class="djs-group"><g class="djs-element djs-shape" data-element-id="Task_1d2gs8l" transform="matrix(1, 0, 0, 1, 886, 80)" style="display: block;"><g class="djs-visual"><rect x="0" y="0" width="100" height="80" rx="10" ry="10" style="stroke: black; stroke-width: 2px; fill: white; fill-opacity: 0.95;"/><text style="font-family: Arial, sans-serif; font-size: 12px; font-weight: normal; fill: black;" lineHeight="1.2" class="djs-label"><tspan x="24.33333396911621" y="29.200000000000003">Complete </tspan><tspan x="26" y="43.6">Boarding</tspan><tspan x="50" y="58"/></text></g><rect style="fill: none; stroke-opacity: 0; stroke: white; stroke-width: 15px;" class="djs-hit djs-hit-all" x="0" y="0" width="100" height="80"/><rect x="-6" y="-6" width="112" height="92" style="fill: none;" class="djs-outline"/></g></g><g class="djs-group"><g class="djs-element djs-shape" data-element-id="IntermediateThrowEvent_15cfyw2" transform="matrix(1, 0, 0, 1, 1025, 102)" style="display: block;"><g class="djs-visual"><circle cx="18" cy="18" r="18" style="stroke: black; stroke-width: 1px; fill: white; fill-opacity: 0.95;"/><circle cx="18" cy="18" r="15" style="stroke: black; stroke-width: 1px; fill: none;"/></g><rect style="fill: none; stroke-opacity: 0; stroke: white; stroke-width: 15px;" class="djs-hit djs-hit-all" x="0" y="0" width="36" height="36"/><rect x="-6" y="-6" width="48" height="48" style="fill: none;" class="djs-outline"/></g></g><g class="djs-group"><g class="djs-element djs-shape" data-element-id="IntermediateThrowEvent_15cfyw2_label" transform="matrix(1, 0, 0, 1, 1023, 145)" style="display: block;"><g class="djs-visual"><text style="font-family: Arial, sans-serif; font-size: 11px; font-weight: normal; fill: black;" lineHeight="1.2" class="djs-label"><tspan x="0" y="9.899999999999999">Take Off</tspan><tspan x="20.366666793823242" y="23.099999999999998"/></text></g><rect style="fill: none; stroke-opacity: 0; stroke: white; stroke-width: 15px;" class="djs-hit djs-hit-all" x="0" y="0" width="41" height="27"/><rect x="-6" y="-6" width="53" height="39" style="fill: none;" class="djs-outline"/></g></g><g class="djs-group"><g class="djs-element djs-shape" data-element-id="ExclusiveGateway_0jvxxcn" transform="matrix(1, 0, 0, 1, 1109, 95)" style="display: block;"><g class="djs-visual"><polygon points="25,0 50,25 25,50 0,25" style="stroke: black; stroke-width: 2px; fill: white; fill-opacity: 0.95;"/><path d="m 16,15 7.42857142857143,9.714285714285715 -7.42857142857143,9.714285714285715 3.428571428571429,0 5.714285714285715,-7.464228571428572 5.714285714285715,7.464228571428572 3.428571428571429,0 -7.42857142857143,-9.714285714285715 7.42857142857143,-9.714285714285715 -3.428571428571429,0 -5.714285714285715,7.464228571428572 -5.714285714285715,-7.464228571428572 -3.428571428571429,0 z" style="fill: black; stroke-width: 1px; stroke: black;"/></g><rect style="fill: none; stroke-opacity: 0; stroke: white; stroke-width: 15px;" class="djs-hit djs-hit-all" x="0" y="0" width="50" height="50"/><rect x="-6" y="-6" width="62" height="62" style="fill: none;" class="djs-outline"/></g></g><g class="djs-group"><g class="djs-element djs-shape" data-element-id="EndEvent_0kgih2f" transform="matrix(1, 0, 0, 1, 1466, 102)" style="display: block;"><g class="djs-visual"><circle cx="18" cy="18" r="18" style="stroke: black; stroke-width: 4px; fill: white; fill-opacity: 0.95;"/></g><rect style="fill: none; stroke-opacity: 0; stroke: white; stroke-width: 15px;" class="djs-hit djs-hit-all" x="0" y="0" width="36" height="36"/><rect x="-6" y="-6" width="48" height="48" style="fill: none;" class="djs-outline"/></g></g><g class="djs-group"><g class="djs-element djs-shape" data-element-id="EndEvent_0kgih2f_label" transform="matrix(1, 0, 0, 1, 1474, 145)" style="display: block;"><g class="djs-visual"><text style="font-family: Arial, sans-serif; font-size: 11px; font-weight: normal; fill: black;" lineHeight="1.2" class="djs-label"><tspan x="0" y="9.899999999999999">End</tspan></text></g><rect style="fill: none; stroke-opacity: 0; stroke: white; stroke-width: 15px;" class="djs-hit djs-hit-all" x="0" y="0" width="20" height="14"/><rect x="-6" y="-6" width="32" height="26" style="fill: none;" class="djs-outline"/></g></g><g class="djs-group"><g class="djs-element djs-shape" data-element-id="Task_1ma6pyy" transform="matrix(1, 0, 0, 1, 1204, 190)" style="display: block;"><g class="djs-visual"><rect x="0" y="0" width="100" height="80" rx="10" ry="10" style="stroke: black; stroke-width: 2px; fill: white; fill-opacity: 0.95;"/><text style="font-family: Arial, sans-serif; font-size: 12px; font-weight: normal; fill: black;" lineHeight="1.2" class="djs-label"><tspan x="9" y="29.200000000000003">Get emergency </tspan><tspan x="30.66666603088379" y="43.6">contact</tspan><tspan x="50" y="58"/></text></g><rect style="fill: none; stroke-opacity: 0; stroke: white; stroke-width: 15px;" class="djs-hit djs-hit-all" x="0" y="0" width="100" height="80"/><rect x="-6" y="-6" width="112" height="92" style="fill: none;" class="djs-outline"/></g></g><g class="djs-group"><g class="djs-element djs-shape" data-element-id="ExclusiveGateway_0rn2yaq" transform="matrix(1, 0, 0, 1, 1341, 95)" style="display: block;"><g class="djs-visual"><polygon points="25,0 50,25 25,50 0,25" style="stroke: black; stroke-width: 2px; fill: white; fill-opacity: 0.95;"/><path d="m 16,15 7.42857142857143,9.714285714285715 -7.42857142857143,9.714285714285715 3.428571428571429,0 5.714285714285715,-7.464228571428572 5.714285714285715,7.464228571428572 3.428571428571429,0 -7.42857142857143,-9.714285714285715 7.42857142857143,-9.714285714285715 -3.428571428571429,0 -5.714285714285715,7.464228571428572 -5.714285714285715,-7.464228571428572 -3.428571428571429,0 z" style="fill: black; stroke-width: 1px; stroke: black;"/></g><rect style="fill: none; stroke-opacity: 0; stroke: white; stroke-width: 15px;" class="djs-hit djs-hit-all" x="0" y="0" width="50" height="50"/><rect x="-6" y="-6" width="62" height="62" style="fill: none;" class="djs-outline"/></g></g><g class="djs-group"><g class="djs-element djs-shape" data-element-id="Task_0mhfw7z" transform="matrix(1, 0, 0, 1, 476, 80)" style="display: block;"><g class="djs-visual"><rect x="0" y="0" width="100" height="80" rx="10" ry="10" style="stroke: black; stroke-width: 2px; fill: white; fill-opacity: 0.95;"/><text style="font-family: Arial, sans-serif; font-size: 12px; font-weight: normal; fill: black;" lineHeight="1.2" class="djs-label"><tspan x="28.33333396911621" y="29.200000000000003">Process </tspan><tspan x="28.33333396911621" y="43.6">Booking</tspan><tspan x="50" y="58"/></text></g><rect style="fill: none; stroke-opacity: 0; stroke: white; stroke-width: 15px;" class="djs-hit djs-hit-all" x="0" y="0" width="100" height="80"/><rect x="-6" y="-6" width="112" height="92" style="fill: none;" class="djs-outline"/></g></g><g class="djs-group"><g class="djs-element djs-shape" data-element-id="IntermediateThrowEvent_1gdcwzv" transform="matrix(1, 0, 0, 1, 820, 102)" style="display: block;"><g class="djs-visual"><circle cx="18" cy="18" r="18" style="stroke: black; stroke-width: 1px; fill: white; fill-opacity: 0.95;"/><circle cx="18" cy="18" r="15" style="stroke: black; stroke-width: 1px; fill: none;"/><circle cx="18" cy="18" r="11" style="stroke: black; stroke-width: 2px; fill: white;"/><path d="M 18,18 l 2.25,-7.5 m -2.25,7.5 l 5.25,1.5 " style="fill: none; stroke-width: 2px; stroke: black; stroke-linecap: square;"/><path d="M 18,18 m 0,7.5 l -0,2.25 " style="fill: none; stroke-width: 1px; stroke: black; stroke-linecap: square;" transform="rotate(0,18,18)"/><path d="M 18,18 m 0,7.5 l -0,2.25 " style="fill: none; stroke-width: 1px; stroke: black; stroke-linecap: square;" transform="rotate(30,18,18)"/><path d="M 18,18 m 0,7.5 l -0,2.25 " style="fill: none; stroke-width: 1px; stroke: black; stroke-linecap: square;" transform="rotate(60,18,18)"/><path d="M 18,18 m 0,7.5 l -0,2.25 " style="fill: none; stroke-width: 1px; stroke: black; stroke-linecap: square;" transform="rotate(90,18,18)"/><path d="M 18,18 m 0,7.5 l -0,2.25 " style="fill: none; stroke-width: 1px; stroke: black; stroke-linecap: square;" transform="rotate(120,18,18)"/><path d="M 18,18 m 0,7.5 l -0,2.25 " style="fill: none; stroke-width: 1px; stroke: black; stroke-linecap: square;" transform="rotate(150,18,18)"/><path d="M 18,18 m 0,7.5 l -0,2.25 " style="fill: none; stroke-width: 1px; stroke: black; stroke-linecap: square;" transform="rotate(180,18,18)"/><path d="M 18,18 m 0,7.5 l -0,2.25 " style="fill: none; stroke-width: 1px; stroke: black; stroke-linecap: square;" transform="rotate(210,18,18)"/><path d="M 18,18 m 0,7.5 l -0,2.25 " style="fill: none; stroke-width: 1px; stroke: black; stroke-linecap: square;" transform="rotate(240,18,18)"/><path d="M 18,18 m 0,7.5 l -0,2.25 " style="fill: none; stroke-width: 1px; stroke: black; stroke-linecap: square;" transform="rotate(270,18,18)"/><path d="M 18,18 m 0,7.5 l -0,2.25 " style="fill: none; stroke-width: 1px; stroke: black; stroke-linecap: square;" transform="rotate(300,18,18)"/><path d="M 18,18 m 0,7.5 l -0,2.25 " style="fill: none; stroke-width: 1px; stroke: black; stroke-linecap: square;" transform="rotate(330,18,18)"/></g><rect style="fill: none; stroke-opacity: 0; stroke: white; stroke-width: 15px;" class="djs-hit djs-hit-all" x="0" y="0" width="36" height="36"/><rect x="-6" y="-6" width="48" height="48" style="fill: none;" class="djs-outline"/></g></g><g class="djs-group"><g class="djs-element djs-shape" data-element-id="IntermediateThrowEvent_1gdcwzv_label" transform="matrix(1, 0, 0, 1, 820, 145)" style="display: block;"><g class="djs-visual"><text style="font-family: Arial, sans-serif; font-size: 11px; font-weight: normal; fill: black;" lineHeight="1.2" class="djs-label"><tspan x="0" y="9.899999999999999">3 hours</tspan></text></g><rect style="fill: none; stroke-opacity: 0; stroke: white; stroke-width: 15px;" class="djs-hit djs-hit-all" x="0" y="0" width="37" height="14"/><rect x="-6" y="-6" width="49" height="26" style="fill: none;" class="djs-outline"/></g></g><g class="djs-group"><g class="djs-element djs-shape" data-element-id="SequenceFlow_1sfiys8_label" transform="matrix(1, 0, 0, 1, 1212, 106)" style="display: block;"><g class="djs-visual"><text style="font-family: Arial, sans-serif; font-size: 11px; font-weight: normal; fill: black;" lineHeight="1.2" class="djs-label"><tspan x="0" y="9.899999999999999">Completed Flight</tspan><tspan x="41.57500076293945" y="23.099999999999998"/></text></g><rect style="fill: none; stroke-opacity: 0; stroke: white; stroke-width: 15px;" class="djs-hit djs-hit-all" x="0" y="0" width="84" height="27"/><rect x="-6" y="-6" width="96" height="39" style="fill: none;" class="djs-outline"/></g></g><g class="djs-group"><g class="djs-element djs-shape" data-element-id="SequenceFlow_19j46d1_label" transform="matrix(1, 0, 0, 1, 1071, 186)" style="display: block;"><g class="djs-visual"><text style="font-family: Arial, sans-serif; font-size: 11px; font-weight: normal; fill: black;" lineHeight="1.2" class="djs-label"><tspan x="0" y="9.899999999999999">Emergency </tspan><tspan x="7.033334732055664" y="23.099999999999998">Occured</tspan><tspan x="27.816667556762695" y="36.3"/></text></g><rect style="fill: none; stroke-opacity: 0; stroke: white; stroke-width: 15px;" class="djs-hit djs-hit-all" x="0" y="0" width="56" height="40"/><rect x="-6" y="-6" width="68" height="52" style="fill: none;" class="djs-outline"/></g></g><g class="djs-group"><g class="djs-element djs-shape" data-element-id="SequenceFlow_0ox59cr_label" transform="matrix(1, 0, 0, 1, 658, 90)" style="display: block;"><g class="djs-visual"><text style="font-family: Arial, sans-serif; font-size: 11px; font-weight: normal; fill: black;" lineHeight="1.2" class="djs-label"><tspan x="0.3000011444091797" y="9.899999999999999">No special </tspan><tspan x="0" y="23.099999999999998">assistance</tspan><tspan x="25.983333587646484" y="36.3"/></text></g><rect style="fill: none; stroke-opacity: 0; stroke: white; stroke-width: 15px;" class="djs-hit djs-hit-all" x="0" y="0" width="52" height="40"/><rect x="-6" y="-6" width="64" height="52" style="fill: none;" class="djs-outline"/></g></g><g class="djs-group"><g class="djs-element djs-shape" data-element-id="SequenceFlow_09aehod_label" transform="matrix(1, 0, 0, 1, 561, 183)" style="display: block;"><g class="djs-visual"><text style="font-family: Arial, sans-serif; font-size: 11px; font-weight: normal; fill: black;" lineHeight="1.2" class="djs-label"><tspan x="8.55000114440918" y="9.899999999999999">Special </tspan><tspan x="0" y="23.099999999999998">Assistance</tspan><tspan x="26.59166717529297" y="36.3"/></text></g><rect style="fill: none; stroke-opacity: 0; stroke: white; stroke-width: 15px;" class="djs-hit djs-hit-all" x="0" y="0" width="54" height="40"/><rect x="-6" y="-6" width="66" height="52" style="fill: none;" class="djs-outline"/></g></g></g></g><g class="djs-group"><g class="djs-element djs-connection" data-element-id="DataOutputAssociation_11bnbam" style="display: block;"><g class="djs-visual"><polyline points="403,160 403,289 " style="fill: none; stroke: black; stroke-width: 2px; stroke-dasharray: 0.5px, 5px; stroke-linecap: round; stroke-linejoin: round; marker-end: url('#association-end-white-black-3d85df6fi4lkgn1iriqwgsru3');"/></g><polyline points="403,160 403,289 " style="fill: none; stroke-opacity: 0; stroke: white; stroke-width: 15px;" class="djs-hit djs-hit-stroke"/><rect x="397" y="154" width="12" height="141" style="fill: none;" class="djs-outline"/></g></g><g class="djs-group"><g class="djs-element djs-connection" data-element-id="DataInputAssociation_0s53s7i" style="display: block;"><g class="djs-visual"><polyline points="428,318 865,379 1204,249 " style="fill: none; stroke: black; stroke-width: 2px; stroke-dasharray: 0.5px, 5px; stroke-linecap: round; stroke-linejoin: round; marker-end: url('#association-end-white-black-3d85df6fi4lkgn1iriqwgsru3');"/></g><polyline points="428,318 865,379 1204,249 " style="fill: none; stroke-opacity: 0; stroke: white; stroke-width: 15px;" class="djs-hit djs-hit-stroke"/><rect x="422" y="243" width="788" height="142" style="fill: none;" class="djs-outline"/></g></g><g class="djs-group"><g class="djs-element djs-connection" data-element-id="DataInputAssociation_04hkyie" style="display: block;"><g class="djs-visual"><polyline points="419,289 501,160 " style="fill: none; stroke: black; stroke-width: 2px; stroke-dasharray: 0.5px, 5px; stroke-linecap: round; stroke-linejoin: round; marker-end: url('#association-end-white-black-3d85df6fi4lkgn1iriqwgsru3');"/></g><polyline points="419,289 501,160 " style="fill: none; stroke-opacity: 0; stroke: white; stroke-width: 15px;" class="djs-hit djs-hit-stroke"/><rect x="413" y="154" width="94" height="141" style="fill: none;" class="djs-outline"/></g></g></svg>