<?xml version="1.0" encoding="utf-8"?>
<!-- created with bpmn-js / http://bpmn.io -->
<!DOCTYPE svg PUBLIC "-//W3C//DTD SVG 1.1//EN" "http://www.w3.org/Graphics/SVG/1.1/DTD/svg11.dtd">
<svg xmlns="http://www.w3.org/2000/svg" xmlns:xlink="http://www.w3.org/1999/xlink" width="1056" height="540" viewBox="146 76 1056 540" version="1.1"><defs><marker id="sequenceflow-end-white-black-34bgaqd1250rhybzf3z8ehqi0" viewBox="0 0 20 20" refX="11" refY="10" markerWidth="10" markerHeight="10" orient="auto"><path d="M 1 5 L 11 10 L 1 15 Z" style="fill: black; stroke-width: 1px; stroke-linecap: round; stroke-dasharray: 10000px, 1px; stroke: black;"/></marker></defs><g class="djs-group"><g class="djs-element djs-shape" data-element-id="_6-53" transform="matrix(1, 0, 0, 1, 152, 82)" style="display: block;"><g class="djs-visual"><rect x="0" y="0" width="1044" height="528" rx="0" ry="0" style="stroke: black; stroke-width: 2px; fill: white; fill-opacity: 0.95;"/><polyline points="30,0 30,528 " style="fill: none; stroke: black; stroke-width: 2px;"/><text style="font-family: Arial, sans-serif; font-size: 12px; font-weight: normal; fill: black;" lineHeight="1.2" class="djs-label" transform="matrix(-1.83697e-16, -1, 1, -1.83697e-16, 0, 528)"><tspan x="215.66666793823242" y="18.6">Hardware Retailer</tspan></text></g><rect x="-6" y="-6" width="1056" height="540" style="fill: none;" class="djs-outline"/><rect style="fill: none; stroke-opacity: 0; stroke: white; stroke-width: 15px;" class="djs-hit djs-hit-click-stroke" x="0" y="0" width="1044" height="528"/><rect style="fill: none; stroke-opacity: 0; stroke: white; stroke-width: 15px;" class="djs-hit djs-hit-all" x="0" y="0" width="30" height="528"/></g><g class="djs-children"><g class="djs-group"><g class="djs-element djs-shape" data-element-id="_6-65" transform="matrix(1, 0, 0, 1, 182, 466)" style="display: block;"><g class="djs-visual"><rect x="0" y="0" width="1014" height="144" rx="0" ry="0" style="stroke: black; stroke-width: 2px; fill: white; fill-opacity: 0.35;"/><text style="font-family: Arial, sans-serif; font-size: 12px; font-weight: normal; fill: black;" lineHeight="1.2" class="djs-label" transform="matrix(-1.83697e-16, -1, 1, -1.83697e-16, 0, 144)"><tspan x="20.666667938232422" y="18.6">Warehouse Worker</tspan></text></g><rect x="-6" y="-6" width="1026" height="156" style="fill: none;" class="djs-outline"/><rect style="fill: none; stroke-opacity: 0; stroke: white; stroke-width: 15px;" class="djs-hit djs-hit-click-stroke" x="0" y="0" width="1014" height="144"/><rect style="fill: none; stroke-opacity: 0; stroke: white; stroke-width: 15px;" class="djs-hit djs-hit-all" x="0" y="0" width="30" height="144"/></g></g><g class="djs-group"><g class="djs-element djs-shape" data-element-id="_6-63" transform="matrix(1, 0, 0, 1, 182, 214)" style="display: block;"><g class="djs-visual"><rect x="0" y="0" width="1014" height="252" rx="0" ry="0" style="stroke: black; stroke-width: 2px; fill: white; fill-opacity: 0.35;"/><text style="font-family: Arial, sans-serif; font-size: 12px; font-weight: normal; fill: black;" lineHeight="1.2" class="djs-label" transform="matrix(-1.83697e-16, -1, 1, -1.83697e-16, 0, 252)"><tspan x="112" y="18.6">Clerk</tspan></text></g><rect x="-6" y="-6" width="1026" height="264" style="fill: none;" class="djs-outline"/><rect style="fill: none; stroke-opacity: 0; stroke: white; stroke-width: 15px;" class="djs-hit djs-hit-click-stroke" x="0" y="0" width="1014" height="252"/><rect style="fill: none; stroke-opacity: 0; stroke: white; stroke-width: 15px;" class="djs-hit djs-hit-all" x="0" y="0" width="30" height="252"/></g></g><g class="djs-group"><g class="djs-element djs-shape" data-element-id="_6-61" transform="matrix(1, 0, 0, 1, 182, 82)" style="display: block;"><g class="djs-visual"><rect x="0" y="0" width="1014" height="132" rx="0" ry="0" style="stroke: black; stroke-width: 2px; fill: white; fill-opacity: 0.35;"/><text style="font-family: Arial, sans-serif; font-size: 12px; font-weight: normal; fill: black;" lineHeight="1.2" class="djs-label" transform="matrix(-1.83697e-16, -1, 1, -1.83697e-16, 0, 132)"><tspan x="17.333332061767578" y="18.6">Logistics  Manager</tspan></text></g><rect x="-6" y="-6" width="1026" height="144" style="fill: none;" class="djs-outline"/><rect style="fill: none; stroke-opacity: 0; stroke: white; stroke-width: 15px;" class="djs-hit djs-hit-click-stroke" x="0" y="0" width="1014" height="132"/><rect style="fill: none; stroke-opacity: 0; stroke: white; stroke-width: 15px;" class="djs-hit djs-hit-all" x="0" y="0" width="30" height="132"/></g></g><g class="djs-group"><g class="djs-element djs-connection" data-element-id="_6-667" style="display: block;"><g class="djs-visual"><path d="m  308,399L308,528 L368,528 " style="fill: none; stroke-width: 2px; stroke: black; stroke-linejoin: round; marker-end: url('#sequenceflow-end-white-black-34bgaqd1250rhybzf3z8ehqi0');"/></g><polyline points="308,399 308,528 368,528 " style="fill: none; stroke-opacity: 0; stroke: white; stroke-width: 15px;" class="djs-hit djs-hit-stroke"/><rect x="302" y="393" width="72" height="141" style="fill: none;" class="djs-outline"/></g></g><g class="djs-group"><g class="djs-element djs-connection" data-element-id="_6-665" style="display: block;"><g class="djs-visual"><path d="m  1075,528L1093,528 L1116,528 " style="fill: none; stroke-width: 2px; stroke: black; stroke-linejoin: round; marker-end: url('#sequenceflow-end-white-black-34bgaqd1250rhybzf3z8ehqi0');"/></g><polyline points="1075,528 1093,528 1116,528 " style="fill: none; stroke-opacity: 0; stroke: white; stroke-width: 15px;" class="djs-hit djs-hit-stroke"/><rect x="1069" y="522" width="53" height="12" style="fill: none;" class="djs-outline"/></g></g><g class="djs-group"><g class="djs-element djs-connection" data-element-id="_6-663" style="display: block;"><g class="djs-visual"><path d="m  970,528L981,528 L992,528 " style="fill: none; stroke-width: 2px; stroke: black; stroke-linejoin: round; marker-end: url('#sequenceflow-end-white-black-34bgaqd1250rhybzf3z8ehqi0');"/></g><polyline points="970,528 981,528 992,528 " style="fill: none; stroke-opacity: 0; stroke: white; stroke-width: 15px;" class="djs-hit djs-hit-stroke"/><rect x="964" y="522" width="34" height="12" style="fill: none;" class="djs-outline"/></g></g><g class="djs-group"><g class="djs-element djs-connection" data-element-id="_6-661" style="display: block;"><g class="djs-visual"><path d="m  451,528L469,528 L583,528 L928,528 " style="fill: none; stroke-width: 2px; stroke: black; stroke-linejoin: round; marker-end: url('#sequenceflow-end-white-black-34bgaqd1250rhybzf3z8ehqi0');"/></g><polyline points="451,528 469,528 583,528 928,528 " style="fill: none; stroke-opacity: 0; stroke: white; stroke-width: 15px;" class="djs-hit djs-hit-stroke"/><rect x="445" y="522" width="489" height="12" style="fill: none;" class="djs-outline"/></g></g><g class="djs-group"><g class="djs-element djs-connection" data-element-id="_6-659" style="display: block;"><g class="djs-visual"><path d="m  938,378L950,378 L949,507 " style="fill: none; stroke-width: 2px; stroke: black; stroke-linejoin: round; marker-end: url('#sequenceflow-end-white-black-34bgaqd1250rhybzf3z8ehqi0');"/></g><polyline points="938,378 950,378 949,507 " style="fill: none; stroke-opacity: 0; stroke: white; stroke-width: 15px;" class="djs-hit djs-hit-stroke"/><rect x="932" y="372" width="24" height="141" style="fill: none;" class="djs-outline"/></g></g><g class="djs-group"><g class="djs-element djs-connection" data-element-id="_6-657" style="display: block;"><g class="djs-visual"><path d="m  847,378L896,378 " style="fill: none; stroke-width: 2px; stroke: black; stroke-linejoin: round; marker-end: url('#sequenceflow-end-white-black-34bgaqd1250rhybzf3z8ehqi0');"/></g><polyline points="847,378 896,378 " style="fill: none; stroke-opacity: 0; stroke: white; stroke-width: 15px;" class="djs-hit djs-hit-stroke"/><rect x="841" y="372" width="61" height="12" style="fill: none;" class="djs-outline"/></g></g><g class="djs-group"><g class="djs-element djs-connection" data-element-id="_6-655" style="display: block;"><g class="djs-visual"><path d="m  728,378L746,378 L764,378 " style="fill: none; stroke-width: 2px; stroke: black; stroke-linejoin: round; marker-end: url('#sequenceflow-end-white-black-34bgaqd1250rhybzf3z8ehqi0');"/></g><polyline points="728,378 746,378 764,378 " style="fill: none; stroke-opacity: 0; stroke: white; stroke-width: 15px;" class="djs-hit djs-hit-stroke"/><rect x="722" y="372" width="48" height="12" style="fill: none;" class="djs-outline"/></g></g><g class="djs-group"><g class="djs-element djs-connection" data-element-id="_6-653" style="display: block;"><g class="djs-visual"><path d="m  908,280L916,280 L917,357 " style="fill: none; stroke-width: 2px; stroke: black; stroke-linejoin: round; marker-end: url('#sequenceflow-end-white-black-34bgaqd1250rhybzf3z8ehqi0');"/></g><polyline points="908,280 916,280 917,357 " style="fill: none; stroke-opacity: 0; stroke: white; stroke-width: 15px;" class="djs-hit djs-hit-stroke"/><rect x="902" y="274" width="21" height="89" style="fill: none;" class="djs-outline"/></g></g><g class="djs-group"><g class="djs-element djs-connection" data-element-id="_6-651" style="display: block;"><g class="djs-visual"><path d="m  811,156L887,156 L887,259 " style="fill: none; stroke-width: 2px; stroke: black; stroke-linejoin: round; marker-end: url('#sequenceflow-end-white-black-34bgaqd1250rhybzf3z8ehqi0');"/></g><polyline points="811,156 887,156 887,259 " style="fill: none; stroke-opacity: 0; stroke: white; stroke-width: 15px;" class="djs-hit djs-hit-stroke"/><rect x="805" y="150" width="88" height="115" style="fill: none;" class="djs-outline"/></g></g><g class="djs-group"><g class="djs-element djs-connection" data-element-id="_6-649" style="display: block;"><g class="djs-visual"><path d="m  836,280L854,280 L866,280 " style="fill: none; stroke-width: 2px; stroke: black; stroke-linejoin: round; marker-end: url('#sequenceflow-end-white-black-34bgaqd1250rhybzf3z8ehqi0');"/></g><polyline points="836,280 854,280 866,280 " style="fill: none; stroke-opacity: 0; stroke: white; stroke-width: 15px;" class="djs-hit djs-hit-stroke"/><rect x="830" y="274" width="42" height="12" style="fill: none;" class="djs-outline"/></g></g><g class="djs-group"><g class="djs-element djs-connection" data-element-id="_6-647" style="display: block;"><g class="djs-visual"><path d="m  688,279L706,279 L753,280 " style="fill: none; stroke-width: 2px; stroke: black; stroke-linejoin: round; marker-end: url('#sequenceflow-end-white-black-34bgaqd1250rhybzf3z8ehqi0');"/></g><polyline points="688,279 706,279 753,280 " style="fill: none; stroke-opacity: 0; stroke: white; stroke-width: 15px;" class="djs-hit djs-hit-stroke"/><rect x="682" y="273" width="77" height="13" style="fill: none;" class="djs-outline"/></g></g><g class="djs-group"><g class="djs-element djs-connection" data-element-id="_6-645" style="display: block;"><g class="djs-visual"><path d="m  667,258L667,156 L728,156 " style="fill: none; stroke-width: 2px; stroke: black; stroke-linejoin: round; marker-end: url('#sequenceflow-end-white-black-34bgaqd1250rhybzf3z8ehqi0');"/></g><polyline points="667,258 667,156 728,156 " style="fill: none; stroke-opacity: 0; stroke: white; stroke-width: 15px;" class="djs-hit djs-hit-stroke"/><rect x="661" y="150" width="73" height="114" style="fill: none;" class="djs-outline"/></g></g><g class="djs-group"><g class="djs-element djs-connection" data-element-id="_6-643" style="display: block;"><g class="djs-visual"><path d="m  619,279L633,279 L646,279 " style="fill: none; stroke-width: 2px; stroke: black; stroke-linejoin: round; marker-end: url('#sequenceflow-end-white-black-34bgaqd1250rhybzf3z8ehqi0');"/></g><polyline points="619,279 633,279 646,279 " style="fill: none; stroke-opacity: 0; stroke: white; stroke-width: 15px;" class="djs-hit djs-hit-stroke"/><rect x="613" y="273" width="39" height="12" style="fill: none;" class="djs-outline"/></g></g><g class="djs-group"><g class="djs-element djs-connection" data-element-id="_6-641" style="display: block;"><g class="djs-visual"><path d="m  510,357L510,279 L536,279 " style="fill: none; stroke-width: 2px; stroke: black; stroke-linejoin: round; marker-end: url('#sequenceflow-end-white-black-34bgaqd1250rhybzf3z8ehqi0');"/></g><polyline points="510,357 510,279 536,279 " style="fill: none; stroke-opacity: 0; stroke: white; stroke-width: 15px;" class="djs-hit djs-hit-stroke"/><rect x="504" y="273" width="38" height="90" style="fill: none;" class="djs-outline"/></g></g><g class="djs-group"><g class="djs-element djs-connection" data-element-id="_6-639" style="display: block;"><g class="djs-visual"><path d="m  530,378L548,378 L645,378 " style="fill: none; stroke-width: 2px; stroke: black; stroke-linejoin: round; marker-end: url('#sequenceflow-end-white-black-34bgaqd1250rhybzf3z8ehqi0');"/></g><polyline points="530,378 548,378 645,378 " style="fill: none; stroke-opacity: 0; stroke: white; stroke-width: 15px;" class="djs-hit djs-hit-stroke"/><rect x="524" y="372" width="127" height="12" style="fill: none;" class="djs-outline"/></g></g><g class="djs-group"><g class="djs-element djs-connection" data-element-id="_6-637" style="display: block;"><g class="djs-visual"><path d="m  451,378L469,378 L489,378 " style="fill: none; stroke-width: 2px; stroke: black; stroke-linejoin: round; marker-end: url('#sequenceflow-end-white-black-34bgaqd1250rhybzf3z8ehqi0');"/></g><polyline points="451,378 469,378 489,378 " style="fill: none; stroke-opacity: 0; stroke: white; stroke-width: 15px;" class="djs-hit djs-hit-stroke"/><rect x="445" y="372" width="50" height="12" style="fill: none;" class="djs-outline"/></g></g><g class="djs-group"><g class="djs-element djs-connection" data-element-id="_6-635" style="display: block;"><g class="djs-visual"><path d="m  329,378L347,378 L368,378 " style="fill: none; stroke-width: 2px; stroke: black; stroke-linejoin: round; marker-end: url('#sequenceflow-end-white-black-34bgaqd1250rhybzf3z8ehqi0');"/></g><polyline points="329,378 347,378 368,378 " style="fill: none; stroke-opacity: 0; stroke: white; stroke-width: 15px;" class="djs-hit djs-hit-stroke"/><rect x="323" y="372" width="51" height="12" style="fill: none;" class="djs-outline"/></g></g><g class="djs-group"><g class="djs-element djs-connection" data-element-id="_6-633" style="display: block;"><g class="djs-visual"><path d="m  254,378L287,378 " style="fill: none; stroke-width: 2px; stroke: black; stroke-linejoin: round; marker-end: url('#sequenceflow-end-white-black-34bgaqd1250rhybzf3z8ehqi0');"/></g><polyline points="254,378 287,378 " style="fill: none; stroke-opacity: 0; stroke: white; stroke-width: 15px;" class="djs-hit djs-hit-stroke"/><rect x="248" y="372" width="45" height="12" style="fill: none;" class="djs-outline"/></g></g><g class="djs-group"><g class="djs-element djs-shape" data-element-id="_6-452" transform="matrix(1, 0, 0, 1, 728, 122)" style="display: block;"><g class="djs-visual"><rect x="0" y="0" width="83" height="68" rx="10" ry="10" style="stroke: black; stroke-width: 2px; fill: white; fill-opacity: 0.95;"/><text style="font-family: Arial, sans-serif; font-size: 12px; font-weight: normal; fill: black;" lineHeight="1.2" class="djs-label"><tspan x="18.83333396911621" y="23.200000000000003">Take out </tspan><tspan x="28.166666984558105" y="37.6">extra </tspan><tspan x="15.5" y="52">insurance</tspan></text></g><rect style="fill: none; stroke-opacity: 0; stroke: white; stroke-width: 15px;" class="djs-hit djs-hit-all" x="0" y="0" width="83" height="68"/><rect x="-6" y="-6" width="95" height="80" style="fill: none;" class="djs-outline"/></g></g><g class="djs-group"><g class="djs-element djs-shape" data-element-id="_6-67" transform="matrix(1, 0, 0, 1, 224, 363)" style="display: block;"><g class="djs-visual"><circle cx="15" cy="15" r="15" style="stroke: black; stroke-width: 2px; fill: white; fill-opacity: 0.95;"/></g><rect style="fill: none; stroke-opacity: 0; stroke: white; stroke-width: 15px;" class="djs-hit djs-hit-all" x="0" y="0" width="30" height="30"/><rect x="-6" y="-6" width="42" height="42" style="fill: none;" class="djs-outline"/></g></g><g class="djs-group"><g class="djs-element djs-shape" data-element-id="_6-80" transform="matrix(1, 0, 0, 1, 287, 357)" style="display: block;"><g class="djs-visual"><polygon points="21,0 42,21 21,42 0,21" style="stroke: black; stroke-width: 2px; fill: white; fill-opacity: 0.95;"/><path d="m 19.32,8.4 0,10.5 -10.5,0 0,4.2 10.5,0 0,10.5 4.2,0 0,-10.5 10.5,0 0,-4.2 -10.5,0 0,-10.5 -4.2,0 z" style="fill: black; stroke-width: 1px; stroke: black;"/></g><rect style="fill: none; stroke-opacity: 0; stroke: white; stroke-width: 15px;" class="djs-hit djs-hit-all" x="0" y="0" width="42" height="42"/><rect x="-6" y="-6" width="54" height="54" style="fill: none;" class="djs-outline"/></g></g><g class="djs-group"><g class="djs-element djs-shape" data-element-id="_6-102" transform="matrix(1, 0, 0, 1, 368, 344)" style="display: block;"><g class="djs-visual"><rect x="0" y="0" width="83" height="68" rx="10" ry="10" style="stroke: black; stroke-width: 2px; fill: white; fill-opacity: 0.95;"/><text style="font-family: Arial, sans-serif; font-size: 12px; font-weight: normal; fill: black;" lineHeight="1.2" class="djs-label"><tspan x="18.16666603088379" y="16">Decide if </tspan><tspan x="10.166667938232422" y="30.4">normal post </tspan><tspan x="15.833333969116211" y="44.8">or special </tspan><tspan x="17.16666603088379" y="59.199999999999996">shipment</tspan></text></g><rect style="fill: none; stroke-opacity: 0; stroke: white; stroke-width: 15px;" class="djs-hit djs-hit-all" x="0" y="0" width="83" height="68"/><rect x="-6" y="-6" width="95" height="80" style="fill: none;" class="djs-outline"/></g></g><g class="djs-group"><g class="djs-element djs-shape" data-element-id="_6-204" transform="matrix(1, 0, 0, 1, 489, 357)" style="display: block;"><g class="djs-visual"><polygon points="21,0 42,21 21,42 0,21" style="stroke: black; stroke-width: 2px; fill: white; fill-opacity: 0.95;"/><path d="m 13.44,12.6 6.24,8.16 -6.24,8.16 2.88,0 4.8,-6.269952 4.8,6.269952 2.88,0 -6.24,-8.16 6.24,-8.16 -2.88,0 -4.8,6.269952 -4.8,-6.269952 -2.88,0 z" style="fill: black; stroke-width: 1px; stroke: black;"/></g><rect style="fill: none; stroke-opacity: 0; stroke: white; stroke-width: 15px;" class="djs-hit djs-hit-all" x="0" y="0" width="42" height="42"/><rect x="-6" y="-6" width="54" height="54" style="fill: none;" class="djs-outline"/></g></g><g class="djs-group"><g class="djs-element djs-shape" data-element-id="_6-226" transform="matrix(1, 0, 0, 1, 645, 344)" style="display: block;"><g class="djs-visual"><rect x="0" y="0" width="83" height="68" rx="10" ry="10" style="stroke: black; stroke-width: 2px; fill: white; fill-opacity: 0.95;"/><text style="font-family: Arial, sans-serif; font-size: 12px; font-weight: normal; fill: black;" lineHeight="1.2" class="djs-label"><tspan x="19.16666603088379" y="23.200000000000003">Request </tspan><tspan x="9.833332061767578" y="37.6">quotes from </tspan><tspan x="21.5" y="52">carriers</tspan></text></g><rect style="fill: none; stroke-opacity: 0; stroke: white; stroke-width: 15px;" class="djs-hit djs-hit-all" x="0" y="0" width="83" height="68"/><rect x="-6" y="-6" width="95" height="80" style="fill: none;" class="djs-outline"/></g></g><g class="djs-group"><g class="djs-element djs-shape" data-element-id="_6-277" transform="matrix(1, 0, 0, 1, 764, 344)" style="display: block;"><g class="djs-visual"><rect x="0" y="0" width="83" height="68" rx="10" ry="10" style="stroke: black; stroke-width: 2px; fill: white; fill-opacity: 0.95;"/><text style="font-family: Arial, sans-serif; font-size: 12px; font-weight: normal; fill: black;" lineHeight="1.2" class="djs-label"><tspan x="18.5" y="16">Assign a </tspan><tspan x="18.83333396911621" y="30.4">carrier &amp; </tspan><tspan x="20.83333396911621" y="44.8">prepare </tspan><tspan x="13.5" y="59.199999999999996">paperwork</tspan></text></g><rect style="fill: none; stroke-opacity: 0; stroke: white; stroke-width: 15px;" class="djs-hit djs-hit-all" x="0" y="0" width="83" height="68"/><rect x="-6" y="-6" width="95" height="80" style="fill: none;" class="djs-outline"/></g></g><g class="djs-group"><g class="djs-element djs-shape" data-element-id="_6-328" transform="matrix(1, 0, 0, 1, 753, 246)" style="display: block;"><g class="djs-visual"><rect x="0" y="0" width="83" height="68" rx="10" ry="10" style="stroke: black; stroke-width: 2px; fill: white; fill-opacity: 0.95;"/><text style="font-family: Arial, sans-serif; font-size: 12px; font-weight: normal; fill: black;" lineHeight="1.2" class="djs-label"><tspan x="8.833332061767578" y="30.4">Fill in a Post </tspan><tspan x="28.833333015441895" y="44.8">label</tspan></text></g><rect style="fill: none; stroke-opacity: 0; stroke: white; stroke-width: 15px;" class="djs-hit djs-hit-all" x="0" y="0" width="83" height="68"/><rect x="-6" y="-6" width="95" height="80" style="fill: none;" class="djs-outline"/></g></g><g class="djs-group"><g class="djs-element djs-shape" data-element-id="_6-379" transform="matrix(1, 0, 0, 1, 536, 245)" style="display: block;"><g class="djs-visual"><rect x="0" y="0" width="83" height="68" rx="10" ry="10" style="stroke: black; stroke-width: 2px; fill: white; fill-opacity: 0.95;"/><text style="font-family: Arial, sans-serif; font-size: 12px; font-weight: normal; fill: black;" lineHeight="1.2" class="djs-label"><tspan x="19.83333396911621" y="16">Check if </tspan><tspan x="28.166666984558105" y="30.4">extra </tspan><tspan x="9.5" y="44.8">insurance is </tspan><tspan x="14.166666030883789" y="59.199999999999996">necessary</tspan></text></g><rect style="fill: none; stroke-opacity: 0; stroke: white; stroke-width: 15px;" class="djs-hit djs-hit-all" x="0" y="0" width="83" height="68"/><rect x="-6" y="-6" width="95" height="80" style="fill: none;" class="djs-outline"/></g></g><g class="djs-group"><g class="djs-element djs-shape" data-element-id="_6-430" transform="matrix(1, 0, 0, 1, 646, 258)" style="display: block;"><g class="djs-visual"><polygon points="21,0 42,21 21,42 0,21" style="stroke: black; stroke-width: 2px; fill: white; fill-opacity: 0.95;"/><circle cx="21" cy="21" r="11" style="stroke: black; stroke-width: 2.5px; fill: white;"/></g><rect style="fill: none; stroke-opacity: 0; stroke: white; stroke-width: 15px;" class="djs-hit djs-hit-all" x="0" y="0" width="42" height="42"/><rect x="-6" y="-6" width="54" height="54" style="fill: none;" class="djs-outline"/></g></g><g class="djs-group"><g class="djs-element djs-shape" data-element-id="_6-503" transform="matrix(1, 0, 0, 1, 866, 259)" style="display: block;"><g class="djs-visual"><polygon points="21,0 42,21 21,42 0,21" style="stroke: black; stroke-width: 2px; fill: white; fill-opacity: 0.95;"/><circle cx="21" cy="21" r="11" style="stroke: black; stroke-width: 2.5px; fill: white;"/></g><rect style="fill: none; stroke-opacity: 0; stroke: white; stroke-width: 15px;" class="djs-hit djs-hit-all" x="0" y="0" width="42" height="42"/><rect x="-6" y="-6" width="54" height="54" style="fill: none;" class="djs-outline"/></g></g><g class="djs-group"><g class="djs-element djs-shape" data-element-id="_6-525" transform="matrix(1, 0, 0, 1, 896, 357)" style="display: block;"><g class="djs-visual"><polygon points="21,0 42,21 21,42 0,21" style="stroke: black; stroke-width: 2px; fill: white; fill-opacity: 0.95;"/><path d="m 13.44,12.6 6.24,8.16 -6.24,8.16 2.88,0 4.8,-6.269952 4.8,6.269952 2.88,0 -6.24,-8.16 6.24,-8.16 -2.88,0 -4.8,6.269952 -4.8,-6.269952 -2.88,0 z" style="fill: black; stroke-width: 1px; stroke: black;"/></g><rect style="fill: none; stroke-opacity: 0; stroke: white; stroke-width: 15px;" class="djs-hit djs-hit-all" x="0" y="0" width="42" height="42"/><rect x="-6" y="-6" width="54" height="54" style="fill: none;" class="djs-outline"/></g></g><g class="djs-group"><g class="djs-element djs-shape" data-element-id="_6-153" transform="matrix(1, 0, 0, 1, 368, 494)" style="display: block;"><g class="djs-visual"><rect x="0" y="0" width="83" height="68" rx="10" ry="10" style="stroke: black; stroke-width: 2px; fill: white; fill-opacity: 0.95;"/><text style="font-family: Arial, sans-serif; font-size: 12px; font-weight: normal; fill: black;" lineHeight="1.2" class="djs-label"><tspan x="18.16666603088379" y="30.4">Package </tspan><tspan x="25.16666603088379" y="44.8">goods</tspan></text></g><rect style="fill: none; stroke-opacity: 0; stroke: white; stroke-width: 15px;" class="djs-hit djs-hit-all" x="0" y="0" width="83" height="68"/><rect x="-6" y="-6" width="95" height="80" style="fill: none;" class="djs-outline"/></g></g><g class="djs-group"><g class="djs-element djs-shape" data-element-id="_6-547" transform="matrix(1, 0, 0, 1, 928, 507)" style="display: block;"><g class="djs-visual"><polygon points="21,0 42,21 21,42 0,21" style="stroke: black; stroke-width: 2px; fill: white; fill-opacity: 0.95;"/><path d="m 19.32,8.4 0,10.5 -10.5,0 0,4.2 10.5,0 0,10.5 4.2,0 0,-10.5 10.5,0 0,-4.2 -10.5,0 0,-10.5 -4.2,0 z" style="fill: black; stroke-width: 1px; stroke: black;"/></g><rect style="fill: none; stroke-opacity: 0; stroke: white; stroke-width: 15px;" class="djs-hit djs-hit-all" x="0" y="0" width="42" height="42"/><rect x="-6" y="-6" width="54" height="54" style="fill: none;" class="djs-outline"/></g></g><g class="djs-group"><g class="djs-element djs-shape" data-element-id="_6-569" transform="matrix(1, 0, 0, 1, 992, 494)" style="display: block;"><g class="djs-visual"><rect x="0" y="0" width="83" height="68" rx="10" ry="10" style="stroke: black; stroke-width: 2px; fill: white; fill-opacity: 0.95;"/><text style="font-family: Arial, sans-serif; font-size: 12px; font-weight: normal; fill: black;" lineHeight="1.2" class="djs-label"><tspan x="30.833333015441895" y="8.799999999999999">Add </tspan><tspan x="13.5" y="23.199999999999996">paperwork </tspan><tspan x="15.166666030883789" y="37.599999999999994">and move </tspan><tspan x="12.166666030883789" y="51.99999999999999">package to </tspan><tspan x="17.16666603088379" y="66.39999999999999">pick area</tspan></text></g><rect style="fill: none; stroke-opacity: 0; stroke: white; stroke-width: 15px;" class="djs-hit djs-hit-all" x="0" y="0" width="83" height="68"/><rect x="-6" y="-6" width="95" height="80" style="fill: none;" class="djs-outline"/></g></g><g class="djs-group"><g class="djs-element djs-shape" data-element-id="_6-620" transform="matrix(1, 0, 0, 1, 1116, 512)" style="display: block;"><g class="djs-visual"><circle cx="16" cy="16" r="16" style="stroke: black; stroke-width: 4px; fill: white; fill-opacity: 0.95;"/></g><rect style="fill: none; stroke-opacity: 0; stroke: white; stroke-width: 15px;" class="djs-hit djs-hit-all" x="0" y="0" width="32" height="32"/><rect x="-6" y="-6" width="44" height="44" style="fill: none;" class="djs-outline"/></g></g></g></g><g class="djs-group"><g class="djs-element djs-shape" data-element-id="_6-67_label" transform="matrix(1, 0, 0, 1, 205, 393)" style="display: block;"><g class="djs-visual"><text style="font-family: Arial, sans-serif; font-size: 11px; font-weight: normal; fill: black;" lineHeight="1.2" class="djs-label"><tspan x="0" y="9.899999999999999">Goods  to ship</tspan></text></g><rect style="fill: none; stroke-opacity: 0; stroke: white; stroke-width: 15px;" class="djs-hit djs-hit-all" x="0" y="0" width="68" height="14"/><rect x="-6" y="-6" width="80" height="26" style="fill: none;" class="djs-outline"/></g></g><g class="djs-group"><g class="djs-element djs-shape" data-element-id="_6-204_label" transform="matrix(1, 0, 0, 1, 470, 399)" style="display: block;"><g class="djs-visual"><text style="font-family: Arial, sans-serif; font-size: 11px; font-weight: normal; fill: black;" lineHeight="1.2" class="djs-label"><tspan x="0" y="9.899999999999999">Mode of delivery</tspan></text></g><rect style="fill: none; stroke-opacity: 0; stroke: white; stroke-width: 15px;" class="djs-hit djs-hit-all" x="0" y="0" width="81" height="14"/><rect x="-6" y="-6" width="93" height="26" style="fill: none;" class="djs-outline"/></g></g><g class="djs-group"><g class="djs-element djs-shape" data-element-id="_6-620_label" transform="matrix(1, 0, 0, 1, 1093, 544)" style="display: block;"><g class="djs-visual"><text style="font-family: Arial, sans-serif; font-size: 11px; font-weight: normal; fill: black;" lineHeight="1.2" class="djs-label"><tspan x="0" y="9.899999999999999">Goods available </tspan><tspan x="21.716665267944336" y="23.099999999999998">for pick</tspan></text></g><rect style="fill: none; stroke-opacity: 0; stroke: white; stroke-width: 15px;" class="djs-hit djs-hit-all" x="0" y="0" width="79" height="27"/><rect x="-6" y="-6" width="91" height="39" style="fill: none;" class="djs-outline"/></g></g><g class="djs-group"><g class="djs-element djs-shape" data-element-id="_6-639_label" transform="matrix(1, 0, 0, 1, 503, 353)" style="display: block;"><g class="djs-visual"><text style="font-family: Arial, sans-serif; font-size: 11px; font-weight: normal; fill: black;" lineHeight="1.2" class="djs-label"><tspan x="0" y="9.899999999999999">Special Carrier</tspan></text></g><rect style="fill: none; stroke-opacity: 0; stroke: white; stroke-width: 15px;" class="djs-hit djs-hit-all" x="0" y="0" width="73" height="14"/><rect x="-6" y="-6" width="85" height="26" style="fill: none;" class="djs-outline"/></g></g><g class="djs-group"><g class="djs-element djs-shape" data-element-id="_6-641_label" transform="matrix(1, 0, 0, 1, 495, 308)" style="display: block;"><g class="djs-visual"><text style="font-family: Arial, sans-serif; font-size: 11px; font-weight: normal; fill: black;" lineHeight="1.2" class="djs-label"><tspan x="0" y="9.899999999999999">Normal Post</tspan></text></g><rect style="fill: none; stroke-opacity: 0; stroke: white; stroke-width: 15px;" class="djs-hit djs-hit-all" x="0" y="0" width="61" height="14"/><rect x="-6" y="-6" width="73" height="26" style="fill: none;" class="djs-outline"/></g></g><g class="djs-group"><g class="djs-element djs-shape" data-element-id="_6-645_label" transform="matrix(1, 0, 0, 1, 644, 197)" style="display: block;"><g class="djs-visual"><text style="font-family: Arial, sans-serif; font-size: 11px; font-weight: normal; fill: black;" lineHeight="1.2" class="djs-label"><tspan x="0" y="9.899999999999999">extra insurance </tspan><tspan x="17.41666603088379" y="23.099999999999998">required</tspan></text></g><rect style="fill: none; stroke-opacity: 0; stroke: white; stroke-width: 15px;" class="djs-hit djs-hit-all" x="0" y="0" width="76" height="27"/><rect x="-6" y="-6" width="88" height="39" style="fill: none;" class="djs-outline"/></g></g><g class="djs-group"><g class="djs-element djs-shape" data-element-id="_6-647_label" transform="matrix(1, 0, 0, 1, 680, 254)" style="display: block;"><g class="djs-visual"><text style="font-family: Arial, sans-serif; font-size: 11px; font-weight: normal; fill: black;" lineHeight="1.2" class="djs-label"><tspan x="0" y="9.899999999999999">Always</tspan></text></g><rect style="fill: none; stroke-opacity: 0; stroke: white; stroke-width: 15px;" class="djs-hit djs-hit-all" x="0" y="0" width="35" height="14"/><rect x="-6" y="-6" width="47" height="26" style="fill: none;" class="djs-outline"/></g></g></svg>