<?xml version="1.0" encoding="utf-8"?>
<!-- created with bpmn-js / http://bpmn.io -->
<!DOCTYPE svg PUBLIC "-//W3C//DTD SVG 1.1//EN" "http://www.w3.org/Graphics/SVG/1.1/DTD/svg11.dtd">
<svg xmlns="http://www.w3.org/2000/svg" xmlns:xlink="http://www.w3.org/1999/xlink" width="1392" height="347" viewBox="94 64 1392 347" version="1.1"><defs><marker id="association-end-white-black-2yl9men29lkfv1w67tfeb337i" viewBox="0 0 20 20" refX="12" refY="10" markerWidth="10" markerHeight="10" orient="auto"><path d="M 1 5 L 11 10 L 1 15" style="fill: none; stroke-width: 1.5px; stroke-linecap: round; stroke-dasharray: 10000px, 1px; stroke: black;"/></marker><marker id="sequenceflow-end-white-black-2yl9men29lkfv1w67tfeb337i" viewBox="0 0 20 20" refX="11" refY="10" markerWidth="10" markerHeight="10" orient="auto"><path d="M 1 5 L 11 10 L 1 15 Z" style="fill: black; stroke-width: 1px; stroke-linecap: round; stroke-dasharray: 10000px, 1px; stroke: black;"/></marker></defs><g class="djs-group"><g class="djs-element djs-shape" data-element-id="_6-60" transform="matrix(1, 0, 0, 1, 100, 70)" style="display: block;"><g class="djs-visual"><rect x="0" y="0" width="1380" height="335" rx="0" ry="0" style="stroke: black; stroke-width: 2px; fill: white; fill-opacity: 0.95;"/><polyline points="30,0 30,335 " style="fill: none; stroke: black; stroke-width: 2px;"/><text style="font-family: Arial, sans-serif; font-size: 12px; font-weight: normal; fill: black;" lineHeight="1.2" class="djs-label" transform="matrix(-1.83697e-16, -1, 1, -1.83697e-16, 0, 335)"><tspan x="86.83333587646484" y="18.6">Nobel Committee for Medicine</tspan></text></g><rect x="-6" y="-6" width="1392" height="347" style="fill: none;" class="djs-outline"/><rect style="fill: none; stroke-opacity: 0; stroke: white; stroke-width: 15px;" class="djs-hit djs-hit-click-stroke" x="0" y="0" width="1380" height="335"/><rect style="fill: none; stroke-opacity: 0; stroke: white; stroke-width: 15px;" class="djs-hit djs-hit-all" x="0" y="0" width="30" height="335"/></g><g class="djs-children"><g class="djs-group"><g class="djs-element djs-connection" data-element-id="_6-148" style="display: block;"><g class="djs-visual"><path d="m  195,212L217,212 L217,211 L239,211 " style="fill: none; stroke-width: 2px; stroke: black; stroke-linejoin: round; marker-end: url('#sequenceflow-end-white-black-2yl9men29lkfv1w67tfeb337i');"/></g><polyline points="195,212 217,212 217,211 239,211 " style="fill: none; stroke-opacity: 0; stroke: white; stroke-width: 15px;" class="djs-hit djs-hit-stroke"/><rect x="189" y="205" width="56" height="13" style="fill: none;" class="djs-outline"/></g></g><g class="djs-group"><g class="djs-element djs-connection" data-element-id="_6-881" style="display: block;"><g class="djs-visual"><path d="m  322,211L343,211 " style="fill: none; stroke-width: 2px; stroke: black; stroke-linejoin: round; marker-end: url('#sequenceflow-end-white-black-2yl9men29lkfv1w67tfeb337i');"/></g><polyline points="322,211 343,211 " style="fill: none; stroke-opacity: 0; stroke: white; stroke-width: 15px;" class="djs-hit djs-hit-stroke"/><rect x="316" y="205" width="33" height="12" style="fill: none;" class="djs-outline"/></g></g><g class="djs-group"><g class="djs-element djs-connection" data-element-id="_6-921" style="display: block;"><g class="djs-visual"><path d="m  430,211L444,211 L456,211 " style="fill: none; stroke-width: 2px; stroke: black; stroke-linejoin: round; marker-end: url('#sequenceflow-end-white-black-2yl9men29lkfv1w67tfeb337i');"/></g><polyline points="430,211 444,211 456,211 " style="fill: none; stroke-opacity: 0; stroke: white; stroke-width: 15px;" class="djs-hit djs-hit-stroke"/><rect x="424" y="205" width="38" height="12" style="fill: none;" class="djs-outline"/></g></g><g class="djs-group"><g class="djs-element djs-connection" data-element-id="_6-943" style="display: block;"><g class="djs-visual"><path d="m  548,211L559,211 L568,211 " style="fill: none; stroke-width: 2px; stroke: black; stroke-linejoin: round; marker-end: url('#sequenceflow-end-white-black-2yl9men29lkfv1w67tfeb337i');"/></g><polyline points="548,211 559,211 568,211 " style="fill: none; stroke-opacity: 0; stroke: white; stroke-width: 15px;" class="djs-hit djs-hit-stroke"/><rect x="542" y="205" width="32" height="12" style="fill: none;" class="djs-outline"/></g></g><g class="djs-group"><g class="djs-element djs-connection" data-element-id="_6-961" style="display: block;"><g class="djs-visual"><path d="m  725,211L755,211 " style="fill: none; stroke-width: 2px; stroke: black; stroke-linejoin: round; marker-end: url('#sequenceflow-end-white-black-2yl9men29lkfv1w67tfeb337i');"/></g><polyline points="725,211 755,211 " style="fill: none; stroke-opacity: 0; stroke: white; stroke-width: 15px;" class="djs-hit djs-hit-stroke"/><rect x="719" y="205" width="42" height="12" style="fill: none;" class="djs-outline"/></g></g><g class="djs-group"><g class="djs-element djs-connection" data-element-id="_6-1023" style="display: block;"><g class="djs-visual"><path d="m  837,211L864,211 " style="fill: none; stroke-width: 2px; stroke: black; stroke-linejoin: round; marker-end: url('#sequenceflow-end-white-black-2yl9men29lkfv1w67tfeb337i');"/></g><polyline points="837,211 864,211 " style="fill: none; stroke-opacity: 0; stroke: white; stroke-width: 15px;" class="djs-hit djs-hit-stroke"/><rect x="831" y="205" width="39" height="12" style="fill: none;" class="djs-outline"/></g></g><g class="djs-group"><g class="djs-element djs-connection" data-element-id="_6-1037" style="display: block;"><g class="djs-visual"><path d="m  704,211L704,123 L1135,123 L1135,177 " style="fill: none; stroke-width: 2px; stroke: black; stroke-linejoin: round; marker-end: url('#sequenceflow-end-white-black-2yl9men29lkfv1w67tfeb337i');"/></g><polyline points="704,211 704,123 1135,123 1135,177 " style="fill: none; stroke-opacity: 0; stroke: white; stroke-width: 15px;" class="djs-hit djs-hit-stroke"/><rect x="698" y="117" width="443" height="100" style="fill: none;" class="djs-outline"/></g></g><g class="djs-group"><g class="djs-element djs-connection" data-element-id="_6-1153" style="display: block;"><g class="djs-visual"><path d="m  651,211L683,211 " style="fill: none; stroke-width: 2px; stroke: black; stroke-linejoin: round; marker-end: url('#sequenceflow-end-white-black-2yl9men29lkfv1w67tfeb337i');"/></g><polyline points="651,211 683,211 " style="fill: none; stroke-opacity: 0; stroke: white; stroke-width: 15px;" class="djs-hit djs-hit-stroke"/><rect x="645" y="205" width="44" height="12" style="fill: none;" class="djs-outline"/></g></g><g class="djs-group"><g class="djs-element djs-connection" data-element-id="_6-331" style="display: block;"><g class="djs-visual"><path d="m  961,211L966,211 L983,211 " style="fill: none; stroke-width: 2px; stroke: black; stroke-linejoin: round; marker-end: url('#sequenceflow-end-white-black-2yl9men29lkfv1w67tfeb337i');"/></g><polyline points="961,211 966,211 983,211 " style="fill: none; stroke-opacity: 0; stroke: white; stroke-width: 15px;" class="djs-hit djs-hit-stroke"/><rect x="955" y="205" width="34" height="12" style="fill: none;" class="djs-outline"/></g></g><g class="djs-group"><g class="djs-element djs-connection" data-element-id="_6-1295" style="display: block;"><g class="djs-visual"><path d="m  1067,211L1078,211 L1087,211 " style="fill: none; stroke-width: 2px; stroke: black; stroke-linejoin: round; marker-end: url('#sequenceflow-end-white-black-2yl9men29lkfv1w67tfeb337i');"/></g><polyline points="1067,211 1078,211 1087,211 " style="fill: none; stroke-opacity: 0; stroke: white; stroke-width: 15px;" class="djs-hit djs-hit-stroke"/><rect x="1061" y="205" width="32" height="12" style="fill: none;" class="djs-outline"/></g></g><g class="djs-group"><g class="djs-element djs-connection" data-element-id="_6-815" style="display: block;"><g class="djs-visual"><path d="m  1182,211L1186,211 L1201,211 " style="fill: none; stroke-width: 2px; stroke: black; stroke-linejoin: round; marker-end: url('#sequenceflow-end-white-black-2yl9men29lkfv1w67tfeb337i');"/></g><polyline points="1182,211 1186,211 1201,211 " style="fill: none; stroke-opacity: 0; stroke: white; stroke-width: 15px;" class="djs-hit djs-hit-stroke"/><rect x="1176" y="205" width="31" height="12" style="fill: none;" class="djs-outline"/></g></g><g class="djs-group"><g class="djs-element djs-connection" data-element-id="_6-333" style="display: block;"><g class="djs-visual"><path d="m  1297,211L1302,211 L1318,211 " style="fill: none; stroke-width: 2px; stroke: black; stroke-linejoin: round; marker-end: url('#sequenceflow-end-white-black-2yl9men29lkfv1w67tfeb337i');"/></g><polyline points="1297,211 1302,211 1318,211 " style="fill: none; stroke-opacity: 0; stroke: white; stroke-width: 15px;" class="djs-hit djs-hit-stroke"/><rect x="1291" y="205" width="33" height="12" style="fill: none;" class="djs-outline"/></g></g><g class="djs-group"><g class="djs-element djs-connection" data-element-id="_6-335" style="display: block;"><g class="djs-visual"><path d="m  1408,211L1413,211 L1431,211 " style="fill: none; stroke-width: 2px; stroke: black; stroke-linejoin: round; marker-end: url('#sequenceflow-end-white-black-2yl9men29lkfv1w67tfeb337i');"/></g><polyline points="1408,211 1413,211 1431,211 " style="fill: none; stroke-opacity: 0; stroke: white; stroke-width: 15px;" class="djs-hit djs-hit-stroke"/><rect x="1402" y="205" width="35" height="12" style="fill: none;" class="djs-outline"/></g></g><g class="djs-group"><g class="djs-element djs-shape" data-element-id="_6-97" transform="matrix(1, 0, 0, 1, 239, 177)" style="display: block;"><g class="djs-visual"><rect x="0" y="0" width="83" height="68" rx="10" ry="10" style="stroke: black; stroke-width: 2px; fill: white; fill-opacity: 0.95;"/><text style="font-family: Arial, sans-serif; font-size: 12px; font-weight: normal; fill: black;" lineHeight="1.2" class="djs-label"><tspan x="27.5" y="23.200000000000003">Send </tspan><tspan x="11.166666030883789" y="37.6">Nomination </tspan><tspan x="27.5" y="52">Form</tspan></text><path d="m35.5,48 m 3,2 l 0,10 m 3,-10 l 0,10 m 3,-10 l 0,10" style="fill: white; stroke-width: 2px; stroke: black;" data-marker="parallel"/></g><rect style="fill: none; stroke-opacity: 0; stroke: white; stroke-width: 15px;" class="djs-hit djs-hit-all" x="0" y="0" width="83" height="68"/><rect x="-6" y="-6" width="95" height="80" style="fill: none;" class="djs-outline"/></g></g><g class="djs-group"><g class="djs-element djs-shape" data-element-id="_6-346" transform="matrix(1, 0, 0, 1, 343, 175)" style="display: block;"><g class="djs-visual"><rect x="0" y="0" width="87" height="72" rx="10" ry="10" style="stroke: black; stroke-width: 2px; fill: white; fill-opacity: 0.95;"/><text style="font-family: Arial, sans-serif; font-size: 12px; font-weight: normal; fill: black;" lineHeight="1.2" class="djs-label"><tspan x="25.16666603088379" y="25.200000000000003">Collect </tspan><tspan x="14.5" y="39.6">Completed </tspan><tspan x="26.5" y="54">Forms</tspan></text><path d="m 43.5,65 c 3.526979,0 6.386161,-2.829858 6.386161,-6.320661 0,-3.490806 -2.859182,-6.320661 -6.386161,-6.320661 -3.526978,0 -6.38616,2.829855 -6.38616,6.320661 0,1.745402 0.714797,3.325567 1.870463,4.469381 0.577834,0.571908 1.265885,1.034728 2.029916,1.35457 l -0.718163,-3.909793 m 0.718163,3.909793 -3.885211,0.802902" style="fill: white; stroke-width: 1px; stroke: black; stroke-linecap: round; stroke-miterlimit: 0.5;" data-marker="loop"/></g><rect style="fill: none; stroke-opacity: 0; stroke: white; stroke-width: 15px;" class="djs-hit djs-hit-all" x="0" y="0" width="87" height="72"/><rect x="-6" y="-6" width="99" height="84" style="fill: none;" class="djs-outline"/></g></g><g class="djs-group"><g class="djs-element djs-shape" data-element-id="_6-429" transform="matrix(1, 0, 0, 1, 456, 174)" style="display: block;"><g class="djs-visual"><rect x="0" y="0" width="93" height="72" rx="10" ry="10" style="stroke: black; stroke-width: 2px; fill: white; fill-opacity: 0.95;"/><text style="font-family: Arial, sans-serif; font-size: 12px; font-weight: normal; fill: black;" lineHeight="1.2" class="djs-label"><tspan x="21.83333396911621" y="18">Screen &amp; </tspan><tspan x="29.83333396911621" y="32.4">Select </tspan><tspan x="16.5" y="46.8">Preliminary </tspan><tspan x="16.16666603088379" y="61.199999999999996">Candidates</tspan></text></g><rect style="fill: none; stroke-opacity: 0; stroke: white; stroke-width: 15px;" class="djs-hit djs-hit-all" x="0" y="0" width="93" height="72"/><rect x="-6" y="-6" width="105" height="84" style="fill: none;" class="djs-outline"/></g></g><g class="djs-group"><g class="djs-element djs-shape" data-element-id="_6-1102" transform="matrix(1, 0, 0, 1, 568, 177)" style="display: block;"><g class="djs-visual"><rect x="0" y="0" width="83" height="68" rx="10" ry="10" style="stroke: black; stroke-width: 2px; fill: white; fill-opacity: 0.95;"/><text style="font-family: Arial, sans-serif; font-size: 12px; font-weight: normal; fill: black;" lineHeight="1.2" class="djs-label"><tspan x="13.833333969116211" y="16">Determine </tspan><tspan x="18.5" y="30.4">Need for </tspan><tspan x="24.16666603088379" y="44.8">Expert </tspan><tspan x="12.5" y="59.199999999999996">Assistance</tspan></text></g><rect style="fill: none; stroke-opacity: 0; stroke: white; stroke-width: 15px;" class="djs-hit djs-hit-all" x="0" y="0" width="83" height="68"/><rect x="-6" y="-6" width="95" height="80" style="fill: none;" class="djs-outline"/></g></g><g class="djs-group"><g class="djs-element djs-shape" data-element-id="_6-53" transform="matrix(1, 0, 0, 1, 434, 289)" style="display: block;"><g class="djs-visual"><path d="m  0,3.591 l  0,19.918032786885245 c  1.0491803278688525,4.426229508196721 30.426229508196723,4.426229508196721  31.475409836065577,0 l  0,-19.918032786885245 c -1.0491803278688525,-4.426229508196721 -30.426229508196723,-4.426229508196721 -31.475409836065577,0c  1.0491803278688525,4.426229508196721 30.426229508196723,4.426229508196721  31.475409836065577,0 m  -31.475409836065577,3.098360655737705c  1.0491803278688525,4.426229508196721 30.426229508196723,4.426229508196721 31.475409836065577,0m  -31.475409836065577,3.098360655737705c  1.0491803278688525,4.426229508196721 30.426229508196723,4.426229508196721  31.475409836065577,0" style="fill: white; stroke-width: 2px; stroke: black; fill-opacity: 0.95;"/></g><rect style="fill: none; stroke-opacity: 0; stroke: white; stroke-width: 15px;" class="djs-hit djs-hit-all" x="0" y="0" width="32" height="27"/><rect x="-6" y="-6" width="44" height="39" style="fill: none;" class="djs-outline"/></g></g><g class="djs-group"><g class="djs-element djs-shape" data-element-id="_6-53_label" transform="matrix(1, 0, 0, 1, 405, 316)" style="display: block;"><g class="djs-visual"><text style="font-family: Arial, sans-serif; font-size: 11px; font-weight: normal; fill: black;" lineHeight="1.2" class="djs-label"><tspan x="18.33333396911621" y="9.899999999999999">Completed </tspan><tspan x="0" y="23.099999999999998">Nomination Forms</tspan></text></g><rect style="fill: none; stroke-opacity: 0; stroke: white; stroke-width: 15px;" class="djs-hit djs-hit-all" x="0" y="0" width="90" height="27"/><rect x="-6" y="-6" width="102" height="39" style="fill: none;" class="djs-outline"/></g></g><g class="djs-group"><g class="djs-element djs-shape" data-element-id="_6-399" transform="matrix(1, 0, 0, 1, 626, 298)" style="display: block;"><g class="djs-visual"><path d="m  0,3.591 l  0,19.918032786885245 c  1.0491803278688525,4.426229508196721 30.426229508196723,4.426229508196721  31.475409836065577,0 l  0,-19.918032786885245 c -1.0491803278688525,-4.426229508196721 -30.426229508196723,-4.426229508196721 -31.475409836065577,0c  1.0491803278688525,4.426229508196721 30.426229508196723,4.426229508196721  31.475409836065577,0 m  -31.475409836065577,3.098360655737705c  1.0491803278688525,4.426229508196721 30.426229508196723,4.426229508196721 31.475409836065577,0m  -31.475409836065577,3.098360655737705c  1.0491803278688525,4.426229508196721 30.426229508196723,4.426229508196721  31.475409836065577,0" style="fill: white; stroke-width: 2px; stroke: black; fill-opacity: 0.95;"/></g><rect style="fill: none; stroke-opacity: 0; stroke: white; stroke-width: 15px;" class="djs-hit djs-hit-all" x="0" y="0" width="32" height="27"/><rect x="-6" y="-6" width="44" height="39" style="fill: none;" class="djs-outline"/></g></g><g class="djs-group"><g class="djs-element djs-shape" data-element-id="_6-399_label" transform="matrix(1, 0, 0, 1, 614, 325)" style="display: block;"><g class="djs-visual"><text style="font-family: Arial, sans-serif; font-size: 11px; font-weight: normal; fill: black;" lineHeight="1.2" class="djs-label"><tspan x="0.3083343505859375" y="9.899999999999999">Preliminary </tspan><tspan x="0" y="23.099999999999998">Candidates</tspan></text></g><rect style="fill: none; stroke-opacity: 0; stroke: white; stroke-width: 15px;" class="djs-hit djs-hit-all" x="0" y="0" width="56" height="27"/><rect x="-6" y="-6" width="68" height="39" style="fill: none;" class="djs-outline"/></g></g><g class="djs-group"><g class="djs-element djs-shape" data-element-id="_6-1235" transform="matrix(1, 0, 0, 1, 210, 309)" style="display: block;"><g class="djs-visual"><path d="m  0,3.591 l  0,19.918032786885245 c  1.0491803278688525,4.426229508196721 30.426229508196723,4.426229508196721  31.475409836065577,0 l  0,-19.918032786885245 c -1.0491803278688525,-4.426229508196721 -30.426229508196723,-4.426229508196721 -31.475409836065577,0c  1.0491803278688525,4.426229508196721 30.426229508196723,4.426229508196721  31.475409836065577,0 m  -31.475409836065577,3.098360655737705c  1.0491803278688525,4.426229508196721 30.426229508196723,4.426229508196721 31.475409836065577,0m  -31.475409836065577,3.098360655737705c  1.0491803278688525,4.426229508196721 30.426229508196723,4.426229508196721  31.475409836065577,0" style="fill: white; stroke-width: 2px; stroke: black; fill-opacity: 0.95;"/></g><rect style="fill: none; stroke-opacity: 0; stroke: white; stroke-width: 15px;" class="djs-hit djs-hit-all" x="0" y="0" width="32" height="27"/><rect x="-6" y="-6" width="44" height="39" style="fill: none;" class="djs-outline"/></g></g><g class="djs-group"><g class="djs-element djs-shape" data-element-id="_6-1235_label" transform="matrix(1, 0, 0, 1, 198, 336)" style="display: block;"><g class="djs-visual"><text style="font-family: Arial, sans-serif; font-size: 11px; font-weight: normal; fill: black;" lineHeight="1.2" class="djs-label"><tspan x="0" y="9.899999999999999">Nominators</tspan></text></g><rect style="fill: none; stroke-opacity: 0; stroke: white; stroke-width: 15px;" class="djs-hit djs-hit-all" x="0" y="0" width="57" height="14"/><rect x="-6" y="-6" width="69" height="26" style="fill: none;" class="djs-outline"/></g></g><g class="djs-group"><g class="djs-element djs-shape" data-element-id="_6-821" transform="matrix(1, 0, 0, 1, 190, 93)" style="display: block;"><g class="djs-visual"><rect x="0" y="0" width="164" height="49" rx="0" ry="0" style="stroke: none; stroke-width: 2px; fill: none;"/><path d="m 0, 0 m 10,0 l -10,0 l 0,49 l 10,0" style="fill: none; stroke-width: 2px; stroke: black;"/><text style="font-family: Arial, sans-serif; font-size: 12px; font-weight: normal; fill: black;" lineHeight="1.2" class="djs-label"><tspan x="5" y="15.799999999999999">Around 3000 </tspan><tspan x="5" y="30.199999999999996">invitations/confidential </tspan><tspan x="5" y="44.599999999999994">nomination forms are sent </tspan><tspan x="5" y="58.99999999999999">to selected Nominators</tspan></text></g><rect style="fill: none; stroke-opacity: 0; stroke: white; stroke-width: 15px;" class="djs-hit djs-hit-all" x="0" y="0" width="164" height="49"/><rect x="-6" y="-6" width="176" height="61" style="fill: none;" class="djs-outline"/></g></g><g class="djs-group"><g class="djs-element djs-shape" data-element-id="_6-84" transform="matrix(1, 0, 0, 1, 165, 196)" style="display: block;"><g class="djs-visual"><circle cx="15" cy="15" r="15" style="stroke: black; stroke-width: 2px; fill: white; fill-opacity: 0.95;"/><circle cx="15" cy="15" r="9" style="stroke: black; stroke-width: 2px; fill: white;"/><path d="M 15,15 l 1.875,-6.25 m -1.875,6.25 l 4.375,1.25 " style="fill: none; stroke-width: 2px; stroke: black; stroke-linecap: square;"/><path d="M 15,15 m 0,6.25 l -0,1.875 " style="fill: none; stroke-width: 1px; stroke: black; stroke-linecap: square;" transform="rotate(0,15,15)"/><path d="M 15,15 m 0,6.25 l -0,1.875 " style="fill: none; stroke-width: 1px; stroke: black; stroke-linecap: square;" transform="rotate(30,15,15)"/><path d="M 15,15 m 0,6.25 l -0,1.875 " style="fill: none; stroke-width: 1px; stroke: black; stroke-linecap: square;" transform="rotate(60,15,15)"/><path d="M 15,15 m 0,6.25 l -0,1.875 " style="fill: none; stroke-width: 1px; stroke: black; stroke-linecap: square;" transform="rotate(90,15,15)"/><path d="M 15,15 m 0,6.25 l -0,1.875 " style="fill: none; stroke-width: 1px; stroke: black; stroke-linecap: square;" transform="rotate(120,15,15)"/><path d="M 15,15 m 0,6.25 l -0,1.875 " style="fill: none; stroke-width: 1px; stroke: black; stroke-linecap: square;" transform="rotate(150,15,15)"/><path d="M 15,15 m 0,6.25 l -0,1.875 " style="fill: none; stroke-width: 1px; stroke: black; stroke-linecap: square;" transform="rotate(180,15,15)"/><path d="M 15,15 m 0,6.25 l -0,1.875 " style="fill: none; stroke-width: 1px; stroke: black; stroke-linecap: square;" transform="rotate(210,15,15)"/><path d="M 15,15 m 0,6.25 l -0,1.875 " style="fill: none; stroke-width: 1px; stroke: black; stroke-linecap: square;" transform="rotate(240,15,15)"/><path d="M 15,15 m 0,6.25 l -0,1.875 " style="fill: none; stroke-width: 1px; stroke: black; stroke-linecap: square;" transform="rotate(270,15,15)"/><path d="M 15,15 m 0,6.25 l -0,1.875 " style="fill: none; stroke-width: 1px; stroke: black; stroke-linecap: square;" transform="rotate(300,15,15)"/><path d="M 15,15 m 0,6.25 l -0,1.875 " style="fill: none; stroke-width: 1px; stroke: black; stroke-linecap: square;" transform="rotate(330,15,15)"/></g><rect style="fill: none; stroke-opacity: 0; stroke: white; stroke-width: 15px;" class="djs-hit djs-hit-all" x="0" y="0" width="30" height="30"/><rect x="-6" y="-6" width="42" height="42" style="fill: none;" class="djs-outline"/></g></g><g class="djs-group"><g class="djs-element djs-shape" data-element-id="_6-695" transform="matrix(1, 0, 0, 1, 864, 171)" style="display: block;"><g class="djs-visual"><rect x="0" y="0" width="98" height="80" rx="10" ry="10" style="stroke: black; stroke-width: 2px; fill: white; fill-opacity: 0.95;"/><text style="font-family: Arial, sans-serif; font-size: 12px; font-weight: normal; fill: black;" lineHeight="1.2" class="djs-label"><tspan x="30.66666603088379" y="14.799999999999999">Collect </tspan><tspan x="18.66666603088379" y="29.199999999999996">Candidates </tspan><tspan x="35.108333587646484" y="43.599999999999994">Work </tspan><tspan x="16.333332061767578" y="57.99999999999999">Assessment </tspan><tspan x="28" y="72.39999999999999">Reports</tspan></text><path d="m 49,73 c 3.526979,0 6.386161,-2.829858 6.386161,-6.320661 0,-3.490806 -2.859182,-6.320661 -6.386161,-6.320661 -3.526978,0 -6.38616,2.829855 -6.38616,6.320661 0,1.745402 0.714797,3.325567 1.870463,4.469381 0.577834,0.571908 1.265885,1.034728 2.029916,1.35457 l -0.718163,-3.909793 m 0.718163,3.909793 -3.885211,0.802902" style="fill: white; stroke-width: 1px; stroke: black; stroke-linecap: round; stroke-miterlimit: 0.5;" data-marker="loop"/></g><rect style="fill: none; stroke-opacity: 0; stroke: white; stroke-width: 15px;" class="djs-hit djs-hit-all" x="0" y="0" width="98" height="80"/><rect x="-6" y="-6" width="110" height="92" style="fill: none;" class="djs-outline"/></g></g><g class="djs-group"><g class="djs-element djs-shape" data-element-id="_6-176" transform="matrix(1, 0, 0, 1, 1087, 177)" style="display: block;"><g class="djs-visual"><rect x="0" y="0" width="95" height="68" rx="10" ry="10" style="stroke: black; stroke-width: 2px; fill: white; fill-opacity: 0.95;"/><text style="font-family: Arial, sans-serif; font-size: 12px; font-weight: normal; fill: black;" lineHeight="1.2" class="djs-label"><tspan x="33.608333587646484" y="23.200000000000003">Write </tspan><tspan x="7.166667938232422" y="37.6">Recommendati</tspan><tspan x="18.16666603088379" y="52">ons Report</tspan></text></g><rect style="fill: none; stroke-opacity: 0; stroke: white; stroke-width: 15px;" class="djs-hit djs-hit-all" x="0" y="0" width="95" height="68"/><rect x="-6" y="-6" width="107" height="80" style="fill: none;" class="djs-outline"/></g></g><g class="djs-group"><g class="djs-element djs-shape" data-element-id="_6-669" transform="matrix(1, 0, 0, 1, 1201, 177)" style="display: block;"><g class="djs-visual"><rect x="0" y="0" width="96" height="67" rx="10" ry="10" style="stroke: black; stroke-width: 2px; fill: white; fill-opacity: 0.95;"/><text style="font-family: Arial, sans-serif; font-size: 12px; font-weight: normal; fill: black;" lineHeight="1.2" class="djs-label"><tspan x="9.666667938232422" y="15.500000000000002">Submit Report </tspan><tspan x="37.333333015441895" y="29.9">with </tspan><tspan x="7.666667938232422" y="44.3">Recommendati</tspan><tspan x="38.333333015441895" y="58.699999999999996">ons</tspan></text></g><rect style="fill: none; stroke-opacity: 0; stroke: white; stroke-width: 15px;" class="djs-hit djs-hit-all" x="0" y="0" width="96" height="67"/><rect x="-6" y="-6" width="108" height="79" style="fill: none;" class="djs-outline"/></g></g><g class="djs-group"><g class="djs-element djs-shape" data-element-id="_6-414" transform="matrix(1, 0, 0, 1, 1318, 174)" style="display: block;"><g class="djs-visual"><rect x="0" y="0" width="89" height="73" rx="10" ry="10" style="stroke: black; stroke-width: 2px; fill: white; fill-opacity: 0.95;"/><text style="font-family: Arial, sans-serif; font-size: 12px; font-weight: normal; fill: black;" lineHeight="1.2" class="djs-label"><tspan x="14.833333969116211" y="25.700000000000003">Hold Nobel </tspan><tspan x="12.275001525878906" y="40.1">Prize Award </tspan><tspan x="16.83333396911621" y="54.5">Ceremony</tspan></text></g><rect style="fill: none; stroke-opacity: 0; stroke: white; stroke-width: 15px;" class="djs-hit djs-hit-all" x="0" y="0" width="89" height="73"/><rect x="-6" y="-6" width="101" height="85" style="fill: none;" class="djs-outline"/></g></g><g class="djs-group"><g class="djs-element djs-shape" data-element-id="_6-801" transform="matrix(1, 0, 0, 1, 1431, 195)" style="display: block;"><g class="djs-visual"><circle cx="16" cy="16" r="16" style="stroke: black; stroke-width: 4px; fill: white; fill-opacity: 0.95;"/></g><rect style="fill: none; stroke-opacity: 0; stroke: white; stroke-width: 15px;" class="djs-hit djs-hit-all" x="0" y="0" width="32" height="32"/><rect x="-6" y="-6" width="44" height="44" style="fill: none;" class="djs-outline"/></g></g><g class="djs-group"><g class="djs-element djs-shape" data-element-id="_6-1244" transform="matrix(1, 0, 0, 1, 983, 177)" style="display: block;"><g class="djs-visual"><rect x="0" y="0" width="83" height="68" rx="10" ry="10" style="stroke: black; stroke-width: 2px; fill: white; fill-opacity: 0.95;"/><text style="font-family: Arial, sans-serif; font-size: 12px; font-weight: normal; fill: black;" lineHeight="1.2" class="djs-label"><tspan x="10.166667938232422" y="16">Select Final </tspan><tspan x="11.166666030883789" y="30.4">Candidates </tspan><tspan x="18.16666603088379" y="44.8">and their </tspan><tspan x="25.83333396911621" y="59.199999999999996">works</tspan></text></g><rect style="fill: none; stroke-opacity: 0; stroke: white; stroke-width: 15px;" class="djs-hit djs-hit-all" x="0" y="0" width="83" height="68"/><rect x="-6" y="-6" width="95" height="80" style="fill: none;" class="djs-outline"/></g></g><g class="djs-group"><g class="djs-element djs-shape" data-element-id="_6-486" transform="matrix(1, 0, 0, 1, 971, 293)" style="display: block;"><g class="djs-visual"><path d="m  0,3.591 l  0,19.918032786885245 c  1.0491803278688525,4.426229508196721 30.426229508196723,4.426229508196721  31.475409836065577,0 l  0,-19.918032786885245 c -1.0491803278688525,-4.426229508196721 -30.426229508196723,-4.426229508196721 -31.475409836065577,0c  1.0491803278688525,4.426229508196721 30.426229508196723,4.426229508196721  31.475409836065577,0 m  -31.475409836065577,3.098360655737705c  1.0491803278688525,4.426229508196721 30.426229508196723,4.426229508196721 31.475409836065577,0m  -31.475409836065577,3.098360655737705c  1.0491803278688525,4.426229508196721 30.426229508196723,4.426229508196721  31.475409836065577,0" style="fill: white; stroke-width: 2px; stroke: black; fill-opacity: 0.95;"/></g><rect style="fill: none; stroke-opacity: 0; stroke: white; stroke-width: 15px;" class="djs-hit djs-hit-all" x="0" y="0" width="32" height="27"/><rect x="-6" y="-6" width="44" height="39" style="fill: none;" class="djs-outline"/></g></g><g class="djs-group"><g class="djs-element djs-shape" data-element-id="_6-337" transform="matrix(1, 0, 0, 1, 1185, 99)" style="display: block;"><g class="djs-visual"><path d="m  0,5.054 l  0,28.0327868852459 c  0.9836065573770492,6.229508196721312 28.524590163934427,6.229508196721312  29.508196721311474,0 l  0,-28.0327868852459 c -0.9836065573770492,-6.229508196721312 -28.524590163934427,-6.229508196721312 -29.508196721311474,0c  0.9836065573770492,6.229508196721312 28.524590163934427,6.229508196721312  29.508196721311474,0 m  -29.508196721311474,4.360655737704918c  0.9836065573770492,6.229508196721312 28.524590163934427,6.229508196721312 29.508196721311474,0m  -29.508196721311474,4.360655737704918c  0.9836065573770492,6.229508196721312 28.524590163934427,6.229508196721312  29.508196721311474,0" style="fill: white; stroke-width: 2px; stroke: black; fill-opacity: 0.95;"/></g><rect style="fill: none; stroke-opacity: 0; stroke: white; stroke-width: 15px;" class="djs-hit djs-hit-all" x="0" y="0" width="30" height="38"/><rect x="-6" y="-6" width="42" height="50" style="fill: none;" class="djs-outline"/></g></g><g class="djs-group"><g class="djs-element djs-shape" data-element-id="_6-495" transform="matrix(1, 0, 0, 1, 755, 170)" style="display: block;"><g class="djs-visual"><rect x="0" y="0" width="82" height="80" rx="10" ry="10" style="stroke: black; stroke-width: 2px; fill: white; fill-opacity: 0.95;"/><text style="font-family: Arial, sans-serif; font-size: 12px; font-weight: normal; fill: black;" lineHeight="1.2" class="djs-label"><tspan x="9.333332061767578" y="22">Send List of </tspan><tspan x="17.66666603088379" y="36.4">Selected </tspan><tspan x="11" y="50.8">Preliminary </tspan><tspan x="10.666666030883789" y="65.19999999999999">Candidates</tspan></text><path d="m35,60 m 3,2 l 0,10 m 3,-10 l 0,10 m 3,-10 l 0,10" style="fill: white; stroke-width: 2px; stroke: black;" data-marker="parallel"/></g><rect style="fill: none; stroke-opacity: 0; stroke: white; stroke-width: 15px;" class="djs-hit djs-hit-all" x="0" y="0" width="82" height="80"/><rect x="-6" y="-6" width="94" height="92" style="fill: none;" class="djs-outline"/></g></g><g class="djs-group"><g class="djs-element djs-shape" data-element-id="_6-675" transform="matrix(1, 0, 0, 1, 683, 190)" style="display: block;"><g class="djs-visual"><polygon points="21,0 42,21 21,42 0,21" style="stroke: black; stroke-width: 2px; fill: white; fill-opacity: 0.95;"/><path d="m 13.44,12.6 6.24,8.16 -6.24,8.16 2.88,0 4.8,-6.269952 4.8,6.269952 2.88,0 -6.24,-8.16 6.24,-8.16 -2.88,0 -4.8,6.269952 -4.8,-6.269952 -2.88,0 z" style="fill: black; stroke-width: 1px; stroke: black;"/></g><rect style="fill: none; stroke-opacity: 0; stroke: white; stroke-width: 15px;" class="djs-hit djs-hit-all" x="0" y="0" width="42" height="42"/><rect x="-6" y="-6" width="54" height="54" style="fill: none;" class="djs-outline"/></g></g><g class="djs-group"><g class="djs-element djs-connection" data-element-id="_6-824" style="display: block;"><g class="djs-visual"><polyline points="203,142 203,160 256,160 255,177 " style="fill: none; stroke: black; stroke-width: 2px; stroke-dasharray: 0.5px, 5px; stroke-linecap: round; stroke-linejoin: round;"/></g><polyline points="203,142 203,160 256,160 255,177 " style="fill: none; stroke-opacity: 0; stroke: white; stroke-width: 15px;" class="djs-hit djs-hit-stroke"/><rect x="197" y="136" width="65" height="47" style="fill: none;" class="djs-outline"/></g></g></g></g><g class="djs-group"><g class="djs-element djs-connection" data-element-id="_6-1242" style="display: block;"><g class="djs-visual"><polyline points="242,322 256,322 255,245 " style="fill: none; stroke: black; stroke-width: 2px; stroke-dasharray: 0.5px, 5px; stroke-linecap: round; stroke-linejoin: round; marker-end: url('#association-end-white-black-2yl9men29lkfv1w67tfeb337i');"/></g><polyline points="242,322 256,322 255,245 " style="fill: none; stroke-opacity: 0; stroke: white; stroke-width: 15px;" class="djs-hit djs-hit-stroke"/><rect x="236" y="239" width="26" height="89" style="fill: none;" class="djs-outline"/></g></g><g class="djs-group"><g class="djs-element djs-connection" data-element-id="_6-406" style="display: block;"><g class="djs-visual"><polyline points="413,246 413,302 434,302 " style="fill: none; stroke: black; stroke-width: 2px; stroke-dasharray: 0.5px, 5px; stroke-linecap: round; stroke-linejoin: round; marker-end: url('#association-end-white-black-2yl9men29lkfv1w67tfeb337i');"/></g><polyline points="413,246 413,302 434,302 " style="fill: none; stroke-opacity: 0; stroke: white; stroke-width: 15px;" class="djs-hit djs-hit-stroke"/><rect x="407" y="240" width="33" height="68" style="fill: none;" class="djs-outline"/></g></g><g class="djs-group"><g class="djs-element djs-connection" data-element-id="_6-484" style="display: block;"><g class="djs-visual"><polyline points="466,302 486,302 487,247 " style="fill: none; stroke: black; stroke-width: 2px; stroke-dasharray: 0.5px, 5px; stroke-linecap: round; stroke-linejoin: round; marker-end: url('#association-end-white-black-2yl9men29lkfv1w67tfeb337i');"/></g><polyline points="466,302 486,302 487,247 " style="fill: none; stroke-opacity: 0; stroke: white; stroke-width: 15px;" class="djs-hit djs-hit-stroke"/><rect x="460" y="241" width="33" height="67" style="fill: none;" class="djs-outline"/></g></g><g class="djs-group"><g class="djs-element djs-connection" data-element-id="_6-493" style="display: block;"><g class="djs-visual"><polyline points="530,247 530,312 626,311 " style="fill: none; stroke: black; stroke-width: 2px; stroke-dasharray: 0.5px, 5px; stroke-linecap: round; stroke-linejoin: round; marker-end: url('#association-end-white-black-2yl9men29lkfv1w67tfeb337i');"/></g><polyline points="530,247 530,312 626,311 " style="fill: none; stroke-opacity: 0; stroke: white; stroke-width: 15px;" class="djs-hit djs-hit-stroke"/><rect x="524" y="241" width="108" height="77" style="fill: none;" class="djs-outline"/></g></g><g class="djs-group"><g class="djs-element djs-connection" data-element-id="_6-546" style="display: block;"><g class="djs-visual"><polyline points="658,311 796,311 796,250 " style="fill: none; stroke: black; stroke-width: 2px; stroke-dasharray: 0.5px, 5px; stroke-linecap: round; stroke-linejoin: round; marker-end: url('#association-end-white-black-2yl9men29lkfv1w67tfeb337i');"/></g><polyline points="658,311 796,311 796,250 " style="fill: none; stroke-opacity: 0; stroke: white; stroke-width: 15px;" class="djs-hit djs-hit-stroke"/><rect x="652" y="244" width="150" height="73" style="fill: none;" class="djs-outline"/></g></g><g class="djs-group"><g class="djs-element djs-connection" data-element-id="_6-413" style="display: block;"><g class="djs-visual"><polyline points="1174,178 1191,137 " style="fill: none; stroke: black; stroke-width: 2px; stroke-dasharray: 0.5px, 5px; stroke-linecap: round; stroke-linejoin: round; marker-end: url('#association-end-white-black-2yl9men29lkfv1w67tfeb337i');"/></g><polyline points="1174,178 1191,137 " style="fill: none; stroke-opacity: 0; stroke: white; stroke-width: 15px;" class="djs-hit djs-hit-stroke"/><rect x="1168" y="131" width="29" height="53" style="fill: none;" class="djs-outline"/></g></g><g class="djs-group"><g class="djs-element djs-connection" data-element-id="_6-818" style="display: block;"><g class="djs-visual"><polyline points="1209,137 1230,177 " style="fill: none; stroke: black; stroke-width: 2px; stroke-dasharray: 0.5px, 5px; stroke-linecap: round; stroke-linejoin: round; marker-end: url('#association-end-white-black-2yl9men29lkfv1w67tfeb337i');"/></g><polyline points="1209,137 1230,177 " style="fill: none; stroke-opacity: 0; stroke: white; stroke-width: 15px;" class="djs-hit djs-hit-stroke"/><rect x="1203" y="131" width="33" height="52" style="fill: none;" class="djs-outline"/></g></g><g class="djs-group"><g class="djs-element djs-shape" data-element-id="_6-84_label" transform="matrix(1, 0, 0, 1, 140, 236)" style="display: block;"><g class="djs-visual"><text style="font-family: Arial, sans-serif; font-size: 11px; font-weight: normal; fill: black;" lineHeight="1.2" class="djs-label"><tspan x="0" y="9.899999999999999">September Year </tspan><tspan x="31.591668128967285" y="23.099999999999998">n-1</tspan></text></g><rect style="fill: none; stroke-opacity: 0; stroke: white; stroke-width: 15px;" class="djs-hit djs-hit-all" x="0" y="0" width="80" height="27"/><rect x="-6" y="-6" width="92" height="39" style="fill: none;" class="djs-outline"/></g></g><g class="djs-group"><g class="djs-element djs-shape" data-element-id="_6-486_label" transform="matrix(1, 0, 0, 1, 954, 320)" style="display: block;"><g class="djs-visual"><text style="font-family: Arial, sans-serif; font-size: 11px; font-weight: normal; fill: black;" lineHeight="1.2" class="djs-label"><tspan x="4.875" y="9.899999999999999">Candidates </tspan><tspan x="0" y="23.099999999999998">Assessments</tspan></text></g><rect style="fill: none; stroke-opacity: 0; stroke: white; stroke-width: 15px;" class="djs-hit djs-hit-all" x="0" y="0" width="66" height="27"/><rect x="-6" y="-6" width="78" height="39" style="fill: none;" class="djs-outline"/></g></g><g class="djs-group"><g class="djs-element djs-connection" data-element-id="_6-757" style="display: block;"><g class="djs-visual"><polyline points="942,251 942,307 971,306 " style="fill: none; stroke: black; stroke-width: 2px; stroke-dasharray: 0.5px, 5px; stroke-linecap: round; stroke-linejoin: round; marker-end: url('#association-end-white-black-2yl9men29lkfv1w67tfeb337i');"/></g><polyline points="942,251 942,307 971,306 " style="fill: none; stroke-opacity: 0; stroke: white; stroke-width: 15px;" class="djs-hit djs-hit-stroke"/><rect x="936" y="245" width="41" height="68" style="fill: none;" class="djs-outline"/></g></g><g class="djs-group"><g class="djs-element djs-connection" data-element-id="_6-1297" style="display: block;"><g class="djs-visual"><polyline points="1003,306 1025,306 1025,245 " style="fill: none; stroke: black; stroke-width: 2px; stroke-dasharray: 0.5px, 5px; stroke-linecap: round; stroke-linejoin: round; marker-end: url('#association-end-white-black-2yl9men29lkfv1w67tfeb337i');"/></g><polyline points="1003,306 1025,306 1025,245 " style="fill: none; stroke-opacity: 0; stroke: white; stroke-width: 15px;" class="djs-hit djs-hit-stroke"/><rect x="997" y="239" width="34" height="73" style="fill: none;" class="djs-outline"/></g></g><g class="djs-group"><g class="djs-element djs-shape" data-element-id="_6-337_label" transform="matrix(1, 0, 0, 1, 1226, 106)" style="display: block;"><g class="djs-visual"><text style="font-family: Arial, sans-serif; font-size: 11px; font-weight: normal; fill: black;" lineHeight="1.2" class="djs-label"><tspan x="0" y="9.899999999999999">Recommendation</tspan></text></g><rect style="fill: none; stroke-opacity: 0; stroke: white; stroke-width: 15px;" class="djs-hit djs-hit-all" x="0" y="0" width="87" height="14"/><rect x="-6" y="-6" width="99" height="26" style="fill: none;" class="djs-outline"/></g></g><g class="djs-group"><g class="djs-element djs-shape" data-element-id="_6-675_label" transform="matrix(1, 0, 0, 1, 659, 236)" style="display: block;"><g class="djs-visual"><text style="font-family: Arial, sans-serif; font-size: 11px; font-weight: normal; fill: black;" lineHeight="1.2" class="djs-label"><tspan x="0" y="9.899999999999999">Expert Assistance</tspan><tspan x="18.625001907348633" y="23.099999999999998">Required?</tspan></text></g><rect style="fill: none; stroke-opacity: 0; stroke: white; stroke-width: 15px;" class="djs-hit djs-hit-all" x="0" y="0" width="89" height="27"/><rect x="-6" y="-6" width="101" height="39" style="fill: none;" class="djs-outline"/></g></g><g class="djs-group"><g class="djs-element djs-shape" data-element-id="_6-1037_label" transform="matrix(1, 0, 0, 1, 918, 98)" style="display: block;"><g class="djs-visual"><text style="font-family: Arial, sans-serif; font-size: 11px; font-weight: normal; fill: black;" lineHeight="1.2" class="djs-label"><tspan x="0" y="9.899999999999999">No</tspan></text></g><rect style="fill: none; stroke-opacity: 0; stroke: white; stroke-width: 15px;" class="djs-hit djs-hit-all" x="0" y="0" width="15" height="14"/><rect x="-6" y="-6" width="27" height="26" style="fill: none;" class="djs-outline"/></g></g><g class="djs-group"><g class="djs-element djs-shape" data-element-id="_6-961_label" transform="matrix(1, 0, 0, 1, 721, 193)" style="display: block;"><g class="djs-visual"><text style="font-family: Arial, sans-serif; font-size: 11px; font-weight: normal; fill: black;" lineHeight="1.2" class="djs-label"><tspan x="0" y="9.899999999999999">Yes</tspan></text></g><rect style="fill: none; stroke-opacity: 0; stroke: white; stroke-width: 15px;" class="djs-hit djs-hit-all" x="0" y="0" width="18" height="14"/><rect x="-6" y="-6" width="30" height="26" style="fill: none;" class="djs-outline"/></g></g></svg>